# Blender v2.78 (sub 0) OBJ File: 'Candle_stick.blend'
# www.blender.org
mtllib Candle_Wall.mtl
o Candlestick.001_Circle.000
v 0.004027 0.279928 0.058205
v -0.000244 0.247758 0.078510
v -0.010962 0.158197 0.065351
v 0.006137 0.158180 0.058445
v 0.009595 0.312817 0.069830
v -0.001107 0.311344 0.058660
v -0.010197 0.311760 0.067719
v -0.009855 0.202677 0.063761
v -0.004007 0.259420 0.057527
v 0.009823 0.250719 0.071320
v 0.004158 0.158163 0.079892
v -0.005142 0.302378 0.077728
v -0.009056 0.211133 0.073065
v 0.004970 0.203462 0.074225
v -0.001709 0.235215 0.076843
v 0.001806 0.218540 0.058597
v 0.000503 0.225206 0.077960
v 0.008049 0.227260 0.075211
v -0.001316 0.252329 0.078004
v 0.007711 0.193154 0.063658
v 0.009187 0.284571 0.069804
v -0.003624 0.311572 0.064492
v -0.000907 0.311569 0.063394
v -0.001222 0.311566 0.066802
v -0.003624 0.316973 0.064492
v -0.000907 0.316970 0.063394
v -0.001222 0.316967 0.066802
v -0.003624 0.322380 0.065381
v -0.000907 0.322377 0.064283
v -0.001222 0.322374 0.067691
v -0.082666 -0.035283 -0.014347
v -0.034241 -0.083707 -0.014348
v 0.034241 -0.083707 -0.014347
v 0.082666 -0.035283 -0.014347
v 0.082666 0.033200 -0.014347
v 0.034241 0.081625 -0.014347
v -0.034241 0.081625 -0.014347
v -0.082666 0.033200 -0.014347
v -0.079095 -0.033803 0.003262
v -0.032762 -0.080136 0.003262
v 0.032762 -0.080136 0.003262
v 0.079095 -0.033803 0.003262
v 0.079095 0.031721 0.003262
v 0.032762 0.078053 0.003262
v -0.032762 0.078053 0.003262
v -0.079095 0.031721 0.003262
v 0.004083 -0.010124 0.019617
v 0.019235 -0.047478 0.011469
v 0.010542 -0.004809 0.018743
v 0.004234 0.009877 0.018923
v -0.019235 0.045395 0.011469
v -0.003910 0.009172 0.019617
v -0.003910 -0.010124 0.019617
v -0.019235 -0.047478 0.011469
v 0.009734 0.003520 0.019617
v 0.046436 0.018193 0.011469
v -0.010451 -0.005050 0.018689
v -0.010130 0.003756 0.018956
v 0.029609 0.168792 0.104306
v -0.032363 0.167009 0.029395
v -0.035999 0.168792 0.038699
v 0.011045 0.027963 0.057209
v -0.011170 0.028176 0.057138
v 0.011182 0.028080 0.079441
v -0.011062 0.027889 0.079370
v -0.006553 0.023964 0.061990
v 0.006477 0.024010 0.074672
v 0.006364 0.024010 0.061831
v -0.006234 0.024068 0.074838
v 0.004085 0.012780 0.058562
v -0.004326 0.003779 0.077942
v 0.009623 0.008389 0.063677
v -0.009838 0.003899 0.072580
v 0.009544 0.016774 0.078594
v -0.009333 0.016558 0.057681
v 0.009750 0.003915 0.072416
v -0.004631 0.012651 0.058685
v -0.009531 0.008462 0.063986
v 0.004344 0.003972 0.078038
v -0.011920 0.016507 0.074570
v 0.010627 0.016558 0.058975
v -0.006262 0.016507 0.080228
v 0.005762 0.148502 0.062443
v 0.011730 0.144406 0.052586
v -0.011648 0.144500 0.052574
v 0.006202 0.148514 0.073923
v 0.014608 0.143791 0.082916
v 0.015756 0.144333 0.056287
v -0.015751 0.144373 0.080327
v -0.015737 0.144151 0.056180
v -0.005650 0.148482 0.062112
v -0.011650 0.144471 0.084047
v -0.006117 0.148327 0.074425
v -0.006623 0.159278 0.052610
v 0.015845 0.160013 0.061721
v -0.015845 0.160013 0.061721
v -0.006410 0.159521 0.084145
v 0.006587 0.160013 0.084153
v 0.006616 0.159195 0.052636
v 0.015673 0.158982 0.074837
v -0.015673 0.158982 0.074837
v 0.003667 0.154067 0.072568
v 0.004086 0.154066 0.064221
v -0.003886 0.154068 0.072194
v -0.004261 0.154067 0.064641
v -0.037035 0.166917 0.105343
v 0.036047 0.168713 0.038676
v 0.032159 0.166990 0.029289
v 0.038943 0.166990 0.100675
v -0.029101 0.168786 0.103720
v 0.029257 0.168832 0.033022
v -0.028986 0.168610 0.032964
v -0.035344 0.168610 0.097294
v 0.035311 0.168701 0.097425
v -0.010739 0.161873 0.081271
v 0.010739 0.161873 0.081271
v 0.012963 0.161873 0.057569
v 0.010739 0.161873 0.055344
v -0.010739 0.161873 0.055344
v -0.012963 0.161873 0.079047
v 0.012963 0.161873 0.079047
v -0.012963 0.161873 0.057569
v 0.005110 -0.008062 0.065479
v 0.013079 -0.003120 0.062647
v 0.005158 0.010595 0.057844
v -0.005572 0.009890 0.058536
v -0.005462 -0.008131 0.065445
v 0.012280 0.004614 0.060327
v -0.013547 -0.003351 0.062655
v -0.013137 0.004860 0.059821
vn -0.6932 0.0000 0.7208
vn 0.3746 0.0000 0.9272
vn -0.9958 0.0000 -0.0918
vn -0.6885 -0.1176 0.7157
vn 0.3701 -0.1507 0.9167
vn -0.9957 0.0151 -0.0918
vn -0.0014 -1.0000 -0.0009
vn 0.9800 0.0000 0.1988
vn 0.0613 0.2437 0.9679
vn -0.2280 -0.1173 0.9666
vn 0.2455 -0.0775 0.9663
vn 0.6762 -0.0332 -0.7360
vn -0.6711 -0.0331 0.7407
vn 0.6845 -0.3068 0.6613
vn 0.2414 0.9392 -0.2441
vn 0.2885 -0.8794 0.3786
vn 0.3774 -0.8745 -0.3047
vn 0.2615 0.9433 0.2042
vn 0.2422 0.9315 -0.2714
vn -0.6930 0.6930 0.1988
vn 0.6930 -0.6930 0.1988
vn -0.0000 0.9800 0.1988
vn -0.0000 -0.9800 0.1988
vn 0.6930 0.6930 0.1988
vn 0.9800 -0.0000 -0.1988
vn -0.6930 -0.6930 0.1988
vn 0.1723 -0.1723 0.9698
vn 0.0179 0.2167 0.9761
vn -0.0000 -0.2437 0.9698
vn 0.1723 0.1723 0.9698
vn 0.2193 0.0000 -0.9757
vn -0.1643 -0.1324 0.9775
vn 0.2437 -0.0000 0.9698
vn -0.1723 0.1723 0.9698
vn 0.5646 -0.5664 0.6003
vn -0.0798 0.2755 -0.9580
vn 0.2281 -0.1183 0.9664
vn 0.0025 -0.7240 0.6898
vn -0.0000 -0.2131 0.9770
vn 0.6724 0.6962 -0.2514
vn 0.8238 -0.2213 -0.5218
vn 0.1283 0.2166 0.9678
vn -0.5472 -0.5652 0.6173
vn 0.9638 0.1629 0.2111
vn -0.5658 0.7995 -0.2017
vn 0.0028 -0.0397 -0.9992
vn -0.2138 0.1274 0.9685
vn -0.1166 -0.9780 0.1727
vn -0.0029 -0.0401 0.9992
vn -0.0053 -0.9468 -0.3218
vn 0.3305 0.9412 0.0696
vn 0.9986 -0.0308 0.0424
vn 0.2370 -0.9592 -0.1544
vn -0.6594 -0.0322 -0.7511
vn 0.9992 0.0403 -0.0043
vn -0.0053 -0.7576 -0.6527
vn 0.0049 -0.7630 0.6464
vn 0.6080 0.7936 -0.0215
vn 0.6420 -0.7667 -0.0056
vn 0.9831 0.1447 0.1119
vn 0.0806 0.5012 0.8616
vn -0.0069 -0.1778 0.9840
vn 0.9106 0.4108 0.0457
vn 0.7994 -0.6007 -0.0150
vn 0.0647 -0.0029 -0.9979
vn -0.3194 -0.5773 -0.7515
vn 0.0596 0.3868 -0.9202
vn 0.9998 0.0185 -0.0051
vn -0.6307 0.4521 0.6307
vn -0.6894 -0.2226 0.6894
vn 0.1469 -0.9573 0.2492
vn 0.3392 -0.5002 -0.7967
vn 0.3904 -0.9182 -0.0670
vn -0.2347 -0.9588 -0.1602
vn 0.0350 -0.9302 0.3653
vn 0.0094 0.9254 -0.3789
vn -0.2396 0.9409 0.2394
vn 0.3769 0.9261 -0.0154
vn 0.3929 -0.9196 0.0033
vn 0.0420 0.9002 0.4335
vn -0.2733 0.9366 -0.2192
vn -0.0200 -0.9189 -0.3940
vn -0.2944 -0.8914 0.3446
vn 0.4394 -0.8960 -0.0646
vn 0.4427 0.8943 0.0645
vn 0.0335 -0.8926 0.4496
vn -0.3724 -0.8761 -0.3063
vn 0.9535 0.2990 -0.0369
vn -0.0455 0.4214 -0.9057
vn 0.9662 -0.2555 0.0334
vn 0.0355 0.2521 0.9670
vn -0.0030 0.8959 -0.4443
vn -0.1826 0.9500 -0.2534
vn -0.0075 0.6735 0.7391
vn 0.6836 -0.7298 -0.0099
vn 0.4220 0.9066 0.0055
vn -0.0039 0.9556 0.2946
vn -0.1946 0.9673 0.1626
vn -0.1697 0.9735 -0.1534
vn -0.1370 0.9732 0.1849
vn 0.1614 0.9736 -0.1614
vn 0.1614 0.9736 0.1614
vn 0.0000 0.9557 -0.2943
vn -0.2882 -0.9576 0.0000
vn -0.2867 0.9580 -0.0034
vn -0.6536 0.7557 -0.0419
vn 0.9926 0.1030 -0.0648
vn -0.6118 -0.7909 -0.0125
vn 0.9965 -0.0386 0.0744
vn 0.7575 0.6521 -0.0300
vn 0.0064 -0.9990 0.0437
vn -0.0877 0.9960 -0.0163
vn 0.6348 -0.7726 -0.0070
vn 0.3745 0.0000 0.9272
vn -0.6885 -0.1177 0.7156
vn 0.1644 -0.1331 0.9774
vn -0.0000 0.2437 0.9698
vn 0.1398 0.1658 0.9762
vn 0.2300 0.0211 -0.9730
vn -0.1723 -0.1723 0.9698
vn 0.2117 -0.0213 0.9771
vn -0.1657 0.1393 0.9763
vn 0.5928 -0.5631 0.5757
vn -0.0149 0.0589 -0.9982
vn 0.0084 -0.7217 0.6921
vn 0.7665 0.5061 -0.3954
vn 0.9432 -0.3061 -0.1289
vn -0.5836 -0.5607 0.5874
vn 0.8773 0.4323 0.2085
vn -0.8071 0.3023 -0.5072
vn 0.0003 -0.0392 -0.9992
vn 0.0422 -0.0312 0.9986
vn -0.0008 -0.9490 -0.3152
vn 0.3878 0.9212 0.0320
vn 0.9992 -0.0405 -0.0060
vn 0.3243 -0.9451 0.0392
vn 0.9992 0.0394 0.0002
vn -0.0052 -0.7574 -0.6529
vn 0.0045 -0.7621 0.6474
vn 0.6704 0.7420 0.0063
vn 0.6543 -0.7563 -0.0000
vn 0.9841 0.0935 0.1510
vn 0.0132 0.5804 0.8142
vn 0.1039 -0.0852 0.9909
vn 0.8668 0.4987 -0.0076
vn 0.8987 -0.4167 0.1364
vn -0.0097 -0.2597 -0.9656
vn -0.0124 0.5063 -0.8622
vn 0.9944 -0.0900 0.0559
vn -0.6814 -0.2285 0.6954
vn -0.0504 -0.9402 0.3368
vn 0.3539 -0.9343 -0.0425
vn -0.3298 -0.9426 0.0518
vn 0.0319 -0.9285 0.3700
vn 0.0039 0.9219 -0.3874
vn 0.4584 0.8879 0.0379
vn 0.3843 -0.9232 0.0087
vn 0.0011 0.9280 0.3726
vn -0.0049 -0.9140 -0.4057
vn 0.3757 -0.9266 0.0191
vn 0.3811 0.9243 -0.0189
vn -0.0204 -0.9112 0.4115
vn 0.9045 0.4241 0.0454
vn 0.0270 0.3117 -0.9498
vn 0.9250 -0.3772 -0.0458
vn -0.0458 0.3772 0.9250
vn -0.0004 0.9125 -0.4091
vn 0.0000 0.9576 0.2882
vn -0.1631 0.9730 -0.1631
vn -0.1657 0.9722 0.1657
vn 0.1525 0.9727 -0.1748
vn 0.1588 0.9737 0.1632
vn 0.0028 0.9571 -0.2898
vn -0.2878 -0.9577 0.0002
vn -0.2922 0.9564 0.0000
vn -0.5600 0.8260 -0.0635
vn 0.9946 0.0846 -0.0607
vn -0.5140 -0.8576 0.0199
vn 0.9971 -0.0252 0.0712
vn 0.6543 0.7537 -0.0612
vn -0.0000 -0.9990 0.0449
vn -0.0669 0.9975 -0.0213
vn 0.5335 -0.8454 0.0261
vn -0.8870 0.0145 0.4615
vn -0.3745 -0.0245 -0.9269
vn -0.3222 -0.0705 -0.9441
vn 0.9041 0.1291 -0.4074
vn 0.9941 -0.0584 0.0916
vn 0.9138 -0.0010 -0.4061
vn 0.6058 -0.1739 0.7764
vn -0.4547 -0.0010 0.8907
vn -0.1128 0.6959 0.7092
vn 0.7080 0.1258 -0.6949
vn -0.0436 0.9950 -0.0895
vn -0.3777 -0.0237 -0.9256
vn -0.8088 0.0188 -0.5877
vn 0.0335 0.0199 -0.9992
vn 0.7808 0.0576 -0.6221
vn 0.9155 -0.0128 -0.4021
vn 0.6176 -0.2169 -0.7560
vn 0.9484 -0.1204 -0.2932
vn 0.9708 0.0126 0.2396
vn 0.5256 0.0449 0.8496
vn -0.6910 -0.0798 0.7184
vn -0.4284 -0.0278 0.9032
vn -0.0140 0.1244 0.9921
vn -0.9958 -0.0064 0.0914
vn -0.4791 -0.0152 0.8776
vn -0.1253 -0.1163 0.9853
vn 0.7302 0.0861 -0.6778
vn 0.3615 -0.0852 0.9285
vn -0.1911 -0.2042 0.9601
vn 0.5191 0.0480 0.8534
vn 0.9195 -0.1343 0.3695
vn 0.2714 0.1375 0.9526
vn -0.7036 0.0548 -0.7085
vn 0.4766 -0.0077 0.8791
vn -0.9978 0.0270 0.0612
usemtl Black
s off
f 22//1 27//1 25//1
f 22//2 26//2 25//2
f 23//3 27//3 26//3
f 27//4 28//4 25//4
f 25//5 29//5 28//5
f 27//6 29//6 26//6
f 29//7 30//7 28//7
f 35//8 42//8 34//8
f 50//9 51//9 52//9
f 57//10 54//10 53//10
f 49//11 56//11 55//11
f 88//12 62//12 84//12
f 89//13 65//13 92//13
f 74//14 79//14 76//14
f 84//15 83//15 88//15
f 102//16 100//16 98//16
f 103//17 99//17 95//17
f 59//18 109//18 114//18
f 111//19 107//19 108//19
f 46//20 37//20 38//20
f 42//21 33//21 34//21
f 37//22 44//22 36//22
f 41//23 32//23 33//23
f 44//24 35//24 36//24
f 38//25 39//25 31//25
f 40//26 31//26 32//26
f 42//27 48//27 41//27
f 44//28 51//28 50//28
f 40//29 48//29 54//29
f 44//30 56//30 43//30
f 46//31 57//31 39//31
f 39//32 54//32 57//32
f 56//33 42//33 43//33
f 46//34 51//34 45//34
f 76//35 123//35 124//35
f 126//36 70//36 125//36
f 47//37 48//37 49//37
f 123//38 71//38 127//38
f 48//39 53//39 54//39
f 125//40 72//40 128//40
f 78//41 129//41 130//41
f 55//42 56//42 50//42
f 127//43 73//43 129//43
f 128//44 76//44 124//44
f 78//45 126//45 130//45
f 63//46 84//46 62//46
f 52//47 51//47 58//47
f 106//48 101//48 97//48
f 64//49 92//49 65//49
f 94//50 108//50 99//50
f 61//51 101//51 96//51
f 64//52 88//52 87//52
f 99//53 107//53 95//53
f 90//54 85//54 63//54
f 63//55 89//55 65//55
f 63//56 68//56 66//56
f 64//57 69//57 67//57
f 66//58 65//58 69//58
f 62//59 67//59 68//59
f 78//60 80//60 73//60
f 67//61 82//61 74//61
f 79//62 82//62 71//62
f 81//63 67//63 74//63
f 80//64 66//64 69//64
f 70//65 75//65 81//65
f 75//66 77//66 78//66
f 75//67 68//67 81//67
f 72//68 74//68 76//68
f 69//69 80//69 82//69
f 73//70 82//70 80//70
f 100//71 59//71 98//71
f 81//72 72//72 70//72
f 95//73 109//73 100//73
f 61//74 94//74 96//74
f 59//75 97//75 98//75
f 84//76 91//76 83//76
f 89//77 92//77 93//77
f 86//78 88//78 83//78
f 93//79 90//79 91//79
f 86//80 92//80 87//80
f 85//81 90//81 91//81
f 94//82 103//82 105//82
f 104//83 97//83 101//83
f 100//84 103//84 95//84
f 101//85 105//85 96//85
f 97//86 102//86 98//86
f 105//87 96//87 94//87
f 103//88 86//88 83//88
f 103//89 91//89 105//89
f 105//90 93//90 91//90
f 102//91 93//91 86//91
f 108//92 112//92 111//92
f 61//93 112//93 60//93
f 110//94 106//94 59//94
f 113//95 106//95 61//95
f 114//96 109//96 107//96
f 112//97 118//97 111//97
f 110//98 113//98 106//98
f 114//99 116//99 59//99
f 111//100 117//100 107//100
f 113//101 115//101 120//101
f 112//102 122//102 119//102
f 110//103 116//103 115//103
f 113//104 122//104 120//104
f 117//105 114//105 107//105
f 58//106 126//106 52//106
f 128//107 49//107 55//107
f 53//108 129//108 57//108
f 130//109 57//109 58//109
f 125//110 55//110 50//110
f 53//111 123//111 127//111
f 52//112 125//112 50//112
f 124//113 47//113 49//113
f 22//1 24//1 27//1
f 22//114 23//114 26//114
f 23//3 24//3 27//3
f 27//115 30//115 28//115
f 25//5 26//5 29//5
f 27//6 30//6 29//6
f 35//8 43//8 42//8
f 46//20 45//20 37//20
f 42//21 41//21 33//21
f 37//22 45//22 44//22
f 41//23 40//23 32//23
f 44//24 43//24 35//24
f 38//25 46//25 39//25
f 40//26 39//26 31//26
f 42//116 49//116 48//116
f 44//117 45//117 51//117
f 40//29 41//29 48//29
f 44//118 50//118 56//118
f 46//119 58//119 57//119
f 39//120 40//120 54//120
f 56//121 49//121 42//121
f 46//122 58//122 51//122
f 76//123 79//123 123//123
f 126//124 77//124 70//124
f 123//125 79//125 71//125
f 48//39 47//39 53//39
f 125//126 70//126 72//126
f 78//127 73//127 129//127
f 127//128 71//128 73//128
f 128//129 72//129 76//129
f 78//130 77//130 126//130
f 63//131 85//131 84//131
f 64//132 87//132 92//132
f 94//133 60//133 108//133
f 61//134 106//134 101//134
f 64//135 62//135 88//135
f 99//136 108//136 107//136
f 63//137 90//137 89//137
f 63//138 62//138 68//138
f 64//139 65//139 69//139
f 66//140 63//140 65//140
f 62//141 64//141 67//141
f 78//142 75//142 80//142
f 67//143 69//143 82//143
f 79//144 74//144 82//144
f 81//145 68//145 67//145
f 80//146 75//146 66//146
f 70//147 77//147 75//147
f 75//148 66//148 68//148
f 72//149 81//149 74//149
f 73//150 71//150 82//150
f 100//151 109//151 59//151
f 95//152 107//152 109//152
f 61//153 60//153 94//153
f 59//154 106//154 97//154
f 84//155 85//155 91//155
f 86//156 87//156 88//156
f 93//157 89//157 90//157
f 86//158 93//158 92//158
f 94//159 99//159 103//159
f 100//160 102//160 103//160
f 101//161 104//161 105//161
f 97//162 104//162 102//162
f 103//163 102//163 86//163
f 103//164 83//164 91//164
f 105//165 104//165 93//165
f 102//166 104//166 93//166
f 108//167 60//167 112//167
f 112//168 119//168 118//168
f 114//169 121//169 116//169
f 111//170 118//170 117//170
f 113//171 110//171 115//171
f 112//172 61//172 122//172
f 110//173 59//173 116//173
f 113//174 61//174 122//174
f 117//175 121//175 114//175
f 58//176 130//176 126//176
f 128//177 124//177 49//177
f 53//178 127//178 129//178
f 130//179 129//179 57//179
f 125//180 128//180 55//180
f 53//181 47//181 123//181
f 52//182 126//182 125//182
f 124//183 123//183 47//183
usemtl White
f 12//184 7//184 13//184
f 3//185 16//185 4//185
f 8//186 9//186 16//186
f 18//187 20//187 16//187
f 20//188 11//188 4//188
f 1//189 21//189 10//189
f 15//190 10//190 2//190
f 13//191 17//191 15//191
f 12//192 5//192 7//192
f 6//193 5//193 1//193
f 5//194 6//194 7//194
f 8//195 16//195 3//195
f 7//196 9//196 8//196
f 1//197 9//197 6//197
f 4//198 16//198 20//198
f 21//199 1//199 5//199
f 10//200 9//200 1//200
f 18//201 16//201 10//201
f 11//202 20//202 14//202
f 19//203 21//203 12//203
f 13//204 3//204 11//204
f 19//205 12//205 13//205
f 11//206 14//206 13//206
f 7//207 8//207 13//207
f 19//208 13//208 2//208
f 15//209 2//209 13//209
f 10//210 16//210 9//210
f 14//211 18//211 17//211
f 17//212 13//212 14//212
f 10//213 21//213 19//213
f 18//214 14//214 20//214
f 18//215 10//215 15//215
f 7//216 6//216 9//216
f 21//217 5//217 12//217
f 3//218 13//218 8//218
