# Blender v2.77 (sub 0) OBJ File: 'Concepts.blend'
# www.blender.org
mtllib Chalice.mtl
o Chalice_Decimate_Circle.000
v 0.022977 0.075239 0.025554
v 0.029931 0.165955 0.032039
v 0.021006 0.066377 -0.023870
v 0.029540 0.062943 0.005199
v 0.029931 0.165955 -0.032039
v 0.040858 0.165357 0.000000
v -0.015335 0.064213 -0.028338
v -0.015172 0.065826 0.029155
v -0.029931 0.165955 -0.032039
v -0.029540 0.062943 0.005199
v -0.000000 0.164489 0.041508
v -0.029931 0.165955 0.032039
v -0.040858 0.165357 0.000000
v 0.018280 0.063103 0.022115
v 0.009255 0.055514 0.000000
v 0.009417 0.055836 0.005953
v 0.025510 0.061111 -0.007336
v 0.014251 0.062238 -0.024399
v 0.025905 0.137339 0.025139
v 0.025905 0.137339 -0.025139
v 0.000000 0.055521 -0.009217
v 0.000000 0.055521 0.009217
v -0.009255 0.055514 0.000000
v -0.009580 0.062255 -0.027181
v -0.022239 0.061085 0.012876
v -0.025510 0.061111 -0.007336
v -0.008297 0.062653 0.027826
v -0.000000 0.164489 -0.041508
v -0.025905 0.137339 0.025139
v -0.025905 0.137339 -0.025139
v 0.020808 0.015355 0.012076
v 0.016620 0.015201 -0.016119
v 0.011036 0.025259 0.004275
v 0.007465 0.036612 -0.010524
v 0.008185 0.051283 0.008290
v 0.008880 0.051957 -0.006264
v 0.005673 -0.039637 0.008629
v 0.009936 -0.040148 -0.004640
v 0.007555 -0.057259 -0.010585
v 0.008797 -0.054689 0.006799
v 0.014635 -0.063818 -0.000004
v 0.009334 -0.077236 0.017600
v 0.011359 -0.081941 0.002223
v 0.021346 -0.110616 -0.011303
v 0.050483 -0.137791 0.029146
v 0.058119 -0.139228 0.000000
v 0.029060 -0.139228 0.050333
v 0.050483 -0.137791 -0.029146
v 0.029209 -0.136727 -0.050592
v -0.022176 0.016863 -0.005924
v -0.005837 0.014575 -0.022621
v -0.011845 0.014648 0.021271
v -0.000388 0.021987 -0.010276
v -0.002307 0.032564 0.013382
v -0.010358 0.022570 -0.000999
v -0.009952 0.042988 -0.002642
v -0.007779 0.051704 -0.008888
v -0.007421 0.051728 0.008039
v -0.005672 -0.039834 0.008603
v -0.001926 -0.040080 -0.010484
v -0.010603 -0.041000 -0.004156
v -0.009615 -0.055974 0.008267
v -0.008442 -0.058988 -0.008847
v -0.001504 -0.063588 0.014690
v 0.009252 -0.074728 -0.019524
v -0.021667 -0.076684 -0.000342
v -0.005465 -0.082048 0.009432
v -0.006222 -0.081179 -0.009953
v 0.000000 -0.104319 0.019191
v -0.015190 -0.107457 -0.016694
v -0.050483 -0.137791 0.029146
v -0.058119 -0.139228 0.000000
v 0.000000 -0.137791 0.058292
v -0.000000 -0.137791 -0.058293
v -0.029060 -0.139228 0.050333
v -0.050483 -0.137791 -0.029146
v -0.029209 -0.136727 -0.050592
vn 0.118400 -0.813600 -0.569200
vn -0.963700 0.108900 -0.243900
vn 0.248000 -0.791700 0.558200
vn 0.129400 -0.148500 -0.980400
vn 0.950200 -0.109100 -0.291800
vn 0.304400 -0.091100 0.948200
vn 0.942300 -0.087700 0.323000
vn -0.457400 -0.807900 0.371500
vn -0.575000 -0.771400 -0.272700
vn -0.909100 -0.144600 -0.390600
vn -0.841800 -0.139100 0.521600
vn -0.304200 -0.078200 -0.949400
vn -0.304100 -0.072200 0.949900
vn -0.341900 0.938800 -0.041300
vn -0.042600 0.927900 0.370500
vn -0.114600 0.148400 0.982300
vn -0.901100 0.103000 0.421200
vn 0.984500 0.072900 -0.159200
vn -0.468000 0.083900 -0.879800
vn -0.924800 0.207100 0.319300
vn -0.302700 0.263400 -0.916000
vn 0.901100 0.103000 0.421200
vn 0.271300 -0.134400 0.953100
vn 0.472200 0.078800 0.878000
vn 0.471600 0.079600 -0.878200
vn 0.924800 0.207100 0.319300
vn 0.924800 0.207100 -0.319300
vn -0.000800 1.000000 0.000000
vn 0.276700 -0.227100 -0.933700
vn 0.913500 -0.270500 0.303900
vn 0.978400 -0.148100 -0.144500
vn 0.750900 0.650300 -0.115100
vn 0.176400 0.710600 0.681100
vn 0.587900 0.800800 0.114500
vn 0.758400 -0.415700 -0.501900
vn 0.535400 -0.071200 0.841600
vn 0.146800 0.252000 -0.956500
vn -0.102400 -0.050700 -0.993400
vn 0.667300 -0.120900 0.734900
vn 0.780600 0.607800 -0.145600
vn 0.363200 0.767100 -0.528900
vn 0.557100 0.571000 0.603000
vn 0.916000 -0.400100 -0.029000
vn 0.185200 -0.927200 -0.325500
vn 0.505900 0.505800 -0.698800
vn 0.159600 0.193800 -0.968000
vn 0.350000 0.446700 0.823400
vn 0.150000 0.837000 -0.526200
vn 0.633300 0.763200 -0.128300
vn 0.465600 0.777200 -0.423300
vn -0.917000 0.217000 0.334600
vn 0.418900 0.773300 0.476000
vn 0.435100 -0.165400 -0.885100
vn -0.573800 -0.139400 -0.807000
vn -0.910100 -0.188900 0.368900
vn -0.194800 0.928100 0.317200
vn -0.280900 0.890500 -0.357800
vn -0.352500 0.173700 -0.919500
vn -0.966600 0.255400 0.020100
vn -0.007900 0.266600 0.963800
vn -0.917900 -0.052900 0.393200
vn -0.713100 -0.697100 0.074000
vn -0.674300 0.661600 0.328100
vn -0.526400 -0.015200 -0.850100
vn -0.492400 -0.211000 0.844400
vn -0.297200 -0.954300 -0.031200
vn -0.525800 0.837400 0.149300
vn -0.621100 0.773800 -0.124600
vn -0.210800 0.742600 0.635700
vn -0.418900 0.773300 0.476000
vn 0.000000 -1.000000 0.000000
vn 0.477200 -0.878600 -0.017900
vn 0.561200 -0.786500 -0.257700
vn 0.127800 -0.142500 0.981500
vn 0.928700 -0.096800 0.357900
vn 0.304600 -0.105000 -0.946700
vn 0.938900 -0.120100 -0.322500
vn -0.453300 -0.891300 0.010800
vn -0.938900 -0.120100 -0.322500
vn -0.942300 -0.087700 0.323000
vn -0.100300 0.913300 -0.394700
vn -0.427700 0.888700 -0.165100
vn -0.210200 0.147000 -0.966500
vn -0.823200 0.133200 0.551900
vn -0.469900 0.081600 0.878900
vn -0.924800 0.207100 -0.319300
vn -0.302700 0.263400 0.916000
vn 0.347200 0.936200 -0.055000
vn 0.716100 0.144300 -0.682900
vn 0.766800 0.149700 0.624200
vn 0.302700 0.263400 -0.916000
vn 0.302700 0.263400 0.916000
vn 0.137500 0.821300 -0.553800
vn 0.968300 -0.020200 -0.249100
vn 0.993500 0.100800 0.052100
vn 0.941700 0.159400 0.296400
vn 0.429900 0.242300 -0.869800
vn 0.991400 -0.119500 -0.053200
vn 0.086100 -0.102600 0.991000
vn 0.014700 0.653800 0.756500
vn 0.031900 -0.839800 -0.542000
vn 0.941100 0.337400 0.020700
vn 0.137300 -0.942000 0.306300
vn -0.032600 -0.836700 0.546700
vn 0.820700 0.016400 0.571100
vn 0.116900 0.822300 -0.556900
vn 0.210800 0.742600 0.635700
vn -0.925100 -0.174700 0.337200
vn -0.713800 -0.200100 -0.671100
vn -0.284600 0.872100 -0.398000
vn -0.505400 0.823100 0.259100
vn -0.042800 -0.809000 0.586200
vn -0.681900 -0.045200 -0.730100
vn -0.887000 0.054600 0.458600
vn -0.926800 -0.151500 0.343500
vn -0.497300 -0.420000 -0.759100
vn -0.593100 0.135700 -0.793600
vn -0.001900 -0.020400 0.999800
vn -0.527400 0.004500 -0.849600
vn -0.498900 0.067500 0.864000
vn -0.487500 0.750400 -0.446300
vn -0.133900 0.776800 -0.615300
vn 0.104500 -0.803500 -0.586100
vn -0.916600 0.160700 -0.366100
vn 0.916600 0.160700 -0.366100
vn 0.001800 -0.226300 0.974100
vn -0.147900 0.929800 -0.337000
vn -0.230000 0.949300 0.214500
vn -0.051500 0.997300 -0.052400
vn 0.190200 0.942100 -0.276200
vn 0.224500 0.945800 0.234800
vn 0.205300 0.956600 -0.206900
vn 0.000800 1.000000 0.000000
vn 0.224400 0.947900 0.226000
vn -0.216300 0.951700 0.217900
vn 0.227200 0.896600 -0.380000
vn 0.516500 0.835200 0.189100
vn -0.993100 -0.106400 -0.049300
vn -0.949100 0.310800 0.051000
vn -0.564100 0.818700 0.107400
vn 0.066500 -0.991100 -0.115200
vn 0.153800 -0.984100 0.088800
vn -0.000000 -0.984100 0.177600
vn -0.153800 -0.984100 0.088800
vn -0.033500 -0.997800 -0.058000
vn -0.066500 -0.991100 -0.115200
vn 0.033500 -0.997800 -0.058000
vn 0.000000 -0.999700 -0.024600
vn 0.384400 -0.497900 0.777400
usemtl Material.002
s off
f 3//1 57//1 7//1
f 19//2 17//2 14//2
f 8//3 4//3 1//3
f 7//4 28//4 3//4
f 3//5 5//5 4//5
f 1//6 2//6 11//6
f 2//7 4//7 6//7
f 8//8 10//8 58//8
f 57//9 10//9 7//9
f 10//10 9//10 7//10
f 8//11 12//11 10//11
f 7//12 9//12 28//12
f 11//13 12//13 8//13
f 17//14 15//14 16//14
f 18//15 24//15 21//15
f 18//16 28//16 24//16
f 6//17 20//17 17//17
f 26//18 29//18 25//18
f 11//19 19//19 14//19
f 6//20 5//20 20//20
f 2//21 19//21 11//21
f 26//22 30//22 13//22
f 52//23 37//23 31//23
f 28//24 30//24 24//24
f 27//25 29//25 11//25
f 30//26 9//26 13//26
f 13//27 12//27 29//27
f 22//28 21//28 23//28
f 51//29 32//29 38//29
f 31//30 37//30 38//30
f 32//31 31//31 38//31
f 32//32 33//32 31//32
f 52//33 31//33 33//33
f 44//34 45//34 46//34
f 53//35 34//35 33//35
f 54//36 33//36 35//36
f 34//37 57//37 36//37
f 60//38 39//38 63//38
f 40//39 64//39 41//39
f 39//40 40//40 41//40
f 41//41 65//41 63//41
f 64//42 42//42 41//42
f 41//43 42//43 65//43
f 65//44 43//44 68//44
f 68//45 43//45 44//45
f 68//46 44//46 70//46
f 43//47 67//47 69//47
f 44//48 49//48 70//48
f 44//49 46//49 48//49
f 49//50 44//50 48//50
f 61//51 62//51 59//51
f 69//52 47//52 45//52
f 51//53 38//53 60//53
f 50//54 60//54 61//54
f 61//55 59//55 52//55
f 52//56 33//56 55//56
f 55//57 53//57 50//57
f 53//58 56//58 34//58
f 58//59 57//59 56//59
f 54//60 35//60 58//60
f 67//61 70//61 69//61
f 63//62 64//62 62//62
f 63//63 66//63 64//63
f 63//64 65//64 66//64
f 64//65 66//65 42//65
f 68//66 67//66 66//66
f 70//67 71//67 69//67
f 76//68 72//68 70//68
f 69//69 75//69 73//69
f 71//70 75//70 69//70
f 47//71 72//71 46//71
f 35//72 36//72 4//72
f 4//73 36//73 3//73
f 11//74 8//74 1//74
f 2//75 1//75 4//75
f 5//76 3//76 28//76
f 4//77 5//77 6//77
f 58//78 10//78 57//78
f 10//79 13//79 9//79
f 10//80 12//80 13//80
f 27//81 14//81 22//81
f 16//82 14//82 17//82
f 11//83 14//83 27//83
f 17//84 20//84 18//84
f 20//85 28//85 18//85
f 2//86 6//86 19//86
f 20//87 5//87 28//87
f 23//88 26//88 25//88
f 25//89 29//89 27//89
f 26//90 24//90 30//90
f 29//91 12//91 11//91
f 30//92 28//92 9//92
f 32//93 51//93 53//93
f 33//94 34//94 36//94
f 35//95 33//95 36//95
f 38//96 37//96 40//96
f 60//97 38//97 39//97
f 39//98 38//98 40//98
f 40//99 37//99 62//99
f 40//100 62//100 64//100
f 63//101 39//101 41//101
f 65//102 42//102 43//102
f 43//103 42//103 67//103
f 35//104 8//104 58//104
f 44//105 43//105 69//105
f 70//106 49//106 74//106
f 47//107 69//107 73//107
f 50//108 61//108 52//108
f 50//109 51//109 60//109
f 50//110 53//110 51//110
f 50//111 52//111 55//111
f 55//112 33//112 54//112
f 53//113 55//113 56//113
f 54//114 56//114 55//114
f 56//115 54//115 58//115
f 56//116 57//116 34//116
f 60//117 63//117 61//117
f 37//118 59//118 62//118
f 65//119 68//119 66//119
f 42//120 66//120 67//120
f 70//121 77//121 76//121
f 70//122 74//122 77//122
f 3//123 36//123 57//123
f 19//124 6//124 17//124
f 26//125 13//125 29//125
f 52//126 59//126 37//126
f 22//127 14//127 16//127
f 15//128 17//128 18//128
f 22//129 16//129 15//129
f 25//130 27//130 22//130
f 24//131 26//131 21//131
f 23//132 25//132 22//132
f 22//133 15//133 21//133
f 21//134 26//134 23//134
f 15//135 18//135 21//135
f 32//136 53//136 33//136
f 44//137 69//137 45//137
f 61//138 63//138 62//138
f 67//139 68//139 70//139
f 70//140 72//140 71//140
f 49//141 48//141 74//141
f 46//142 45//142 47//142
f 47//143 73//143 75//143
f 75//144 71//144 72//144
f 72//145 76//145 74//145
f 77//146 74//146 76//146
f 48//147 46//147 74//147
f 47//71 75//71 72//71
f 72//148 74//148 46//148
f 35//149 4//149 8//149
