# Blender v2.77 (sub 0) OBJ File: 'Stuff.blend'
# www.blender.org
mtllib Diamond.mtl
o Gem
v 0.005348 -0.039054 0.028620
v -0.005348 0.039054 -0.028620
v -0.045447 -0.012136 0.017166
v -0.087144 -0.005358 -0.023472
v -0.079040 0.026768 -0.006381
v -0.056379 0.026671 -0.035983
v -0.036349 -0.032276 -0.012018
v -0.046701 -0.033693 -0.069696
v -0.064483 -0.005455 -0.053074
v -0.032113 0.009669 -0.063718
v -0.005004 -0.040472 -0.029059
v 0.019873 -0.033340 -0.081653
v -0.014331 -0.018569 -0.080340
v 0.007832 0.009881 -0.070892
v 0.030225 -0.031923 -0.023975
v 0.073580 -0.004504 -0.052340
v 0.042036 -0.004890 -0.072206
v 0.040056 0.027183 -0.053304
v 0.048703 -0.011636 0.000255
v 0.082959 0.035922 0.001074
v 0.071600 0.027568 -0.033438
v 0.045683 0.051438 -0.021256
v 0.039604 0.008504 0.029438
v 0.042516 0.064258 0.047298
v 0.057042 0.059792 0.013255
v 0.021417 0.068440 0.006478
v 0.008260 0.016700 0.046479
v -0.024058 0.063904 0.059255
v 0.006891 0.072905 0.040521
v -0.018527 0.068228 0.013653
v -0.026970 0.008150 0.041396
v -0.077765 0.035069 0.029942
v -0.049476 0.059227 0.032387
v -0.050751 0.050926 -0.003935
v -0.011937 0.053641 -0.007483
v 0.041060 0.036381 0.038368
v 0.061141 -0.008070 -0.026042
v 0.025388 0.040479 0.046889
v 0.025049 -0.032631 -0.052814
v -0.060431 0.010608 -0.044529
v -0.066296 -0.008747 -0.003153
v -0.015501 -0.035665 0.008301
v -0.034639 0.059577 0.004859
v 0.027025 -0.025345 0.014437
v 0.070001 0.047857 0.007164
v -0.050114 0.055076 0.014226
v -0.010811 -0.015452 0.035008
v 0.049779 0.062025 0.030277
v -0.003250 -0.004344 -0.075616
v -0.078403 0.030919 0.011780
v 0.055828 0.027375 -0.043371
v -0.083092 0.010705 -0.014926
v -0.036767 0.061565 0.045821
v 0.062738 0.050090 0.024186
v -0.044246 0.018170 -0.049850
v -0.067709 0.026720 -0.021182
v -0.018730 0.024362 -0.046169
v -0.052368 0.021610 0.035669
v 0.014154 0.070673 0.023500
v -0.061747 -0.018817 -0.017745
v 0.020168 0.045246 -0.024938
v -0.050912 0.049487 0.044599
v 0.072590 0.011532 -0.042889
v 0.024704 0.068582 0.043909
v 0.041046 0.011146 -0.062755
v 0.030954 -0.019115 -0.076930
v -0.063621 0.047148 0.031165
v 0.000172 -0.039763 -0.000219
v 0.042869 0.039310 -0.037280
v 0.051903 -0.018213 -0.038157
v -0.023222 -0.004450 -0.072029
v 0.039230 0.064116 0.009867
v 0.022476 -0.015275 0.029029
v 0.078270 0.015709 -0.025633
v 0.009229 0.064081 0.053277
v 0.046726 -0.018922 -0.066997
v 0.001445 0.068334 0.010066
v -0.041525 -0.032985 -0.040857
v -0.025853 -0.037083 -0.049377
v 0.051363 0.055615 -0.004000
v 0.065831 0.012143 0.000664
v 0.057808 -0.004697 -0.062273
v -0.061606 0.011466 0.023554
v 0.001242 0.024468 -0.049756
v -0.048298 0.002107 -0.058396
v -0.075814 -0.005406 -0.038273
v -0.064896 0.038847 -0.005158
v -0.007899 0.040302 0.052867
v -0.055592 -0.019574 -0.061385
v 0.008035 0.053747 -0.011071
v -0.012141 0.009775 -0.067305
v 0.077279 0.031745 -0.016182
v -0.020050 -0.025595 0.022893
v 0.023944 0.018532 -0.062098
v -0.066923 -0.019525 -0.046584
v 0.033550 0.059939 -0.007389
v 0.058642 0.039503 -0.027347
v 0.017786 -0.035489 0.002322
v -0.008583 0.068405 0.049888
v -0.034002 0.063727 0.023020
v 0.006804 -0.011177 0.037549
v 0.061282 0.022213 0.015256
v 0.007434 -0.036906 -0.055356
v -0.082455 0.014856 0.003235
v -0.030516 -0.026131 -0.075018
v -0.053565 0.038798 -0.019959
v -0.025514 0.036027 0.050326
v -0.028050 0.044990 -0.016277
v -0.030863 0.032863 -0.032301
v 0.002771 -0.025954 -0.080996
v 0.017354 0.033118 -0.040962
v 0.024934 0.002496 -0.071549
v -0.013414 -0.033517 -0.075675
v -0.005818 0.070567 0.027087
v -0.064258 0.042998 0.013003
v -0.036209 -0.001993 0.029281
v -0.021293 0.066066 0.036454
v -0.009355 0.012425 0.043937
v 0.031967 0.066349 0.026888
v 0.023932 0.012602 0.037959
v 0.064321 0.043680 -0.010091
v 0.044153 -0.001566 0.014847
v 0.056818 0.011339 -0.052822
v 0.039464 -0.021779 -0.011860
v 0.013852 -0.011729 -0.076273
v 0.012610 -0.036197 -0.026517
v -0.039407 -0.012012 -0.066707
v -0.020677 -0.036374 -0.020538
v -0.071762 0.010657 -0.029727
v -0.040898 -0.022206 0.002574
vn -0.220100 -0.973400 0.063400
vn 0.529300 -0.134100 -0.837800
vn 0.075600 0.260700 -0.962500
vn 0.279700 0.908000 -0.311900
vn 0.394300 -0.299000 0.869000
vn -0.345700 -0.269800 0.898700
vn -0.243800 0.967800 0.062200
vn -0.619100 -0.570000 0.540200
vn -0.634400 0.758100 -0.151000
vn -0.109800 0.801700 -0.587500
vn -0.966100 0.256900 -0.024800
vn -0.380100 0.904500 -0.193400
vn -0.380100 0.904500 -0.193300
vn -0.601000 0.657800 0.454000
vn -0.064100 -0.301400 0.951300
vn 0.240300 0.970400 -0.024800
vn 0.095200 0.826700 0.554500
vn 0.175700 -0.143300 0.974000
vn 0.534400 0.764300 -0.360900
vn 0.639600 -0.264600 0.721800
vn 0.369900 0.708400 -0.601100
vn 0.466200 0.470400 -0.749300
vn 0.774200 -0.562600 0.289900
vn 0.608200 -0.772400 0.182900
vn 0.500800 -0.862900 -0.068700
vn 0.238400 -0.971000 -0.018900
vn -0.162400 0.422600 -0.891700
vn -0.408500 0.258100 -0.875500
vn -0.166900 -0.303100 -0.938200
vn -0.020600 -0.989400 -0.143900
vn -0.473100 0.503800 -0.722700
vn -0.702600 0.464200 -0.539400
vn -0.786300 -0.141100 -0.601500
vn -0.484500 -0.868100 0.108300
vn -0.498500 -0.778300 0.381700
vn 0.714600 0.664800 0.217700
vn -0.030900 0.989200 -0.143000
vn -0.563200 0.703400 -0.433500
vn -0.433900 -0.499900 0.749500
vn 0.672800 -0.494100 0.550700
vn 0.894400 0.266800 -0.359000
vn 0.186800 0.507300 -0.841300
usemtl Diamond_Red
s off
f 128//1 42//1 7//1 78//1
f 16//2 76//2 82//2
f 125//3 110//3 13//3 49//3
f 25//4 80//4 72//4
f 120//5 73//5 23//5 36//5
f 31//6 107//6 58//6
f 117//7 99//7 29//7 114//7
f 3//8 83//8 41//8
f 115//9 67//9 33//9 46//9
f 2//10 90//10 61//10
f 35//10 108//10 43//10
f 90//10 77//10 26//10
f 35//10 30//10 77//10
f 111//10 69//10 18//10
f 111//10 61//10 69//10
f 84//10 94//10 14//10
f 57//10 84//10 91//10
f 109//10 55//10 6//10
f 109//10 108//10 2//10
f 87//9 115//9 46//9 34//9
f 52//11 50//11 5//11
f 41//8 83//8 104//8
f 46//12 43//12 34//12
f 46//13 100//13 43//13
f 62//14 28//14 53//14
f 47//15 1//15 101//15 118//15
f 29//16 64//16 119//16 59//16
f 75//17 24//17 64//17
f 88//18 75//18 28//18
f 88//18 38//18 75//18
f 38//18 24//18 75//18
f 80//4 22//4 96//4
f 25//19 45//19 121//19 80//19
f 45//19 20//19 92//19 121//19
f 36//20 102//20 54//20
f 97//21 69//21 22//21
f 21//22 63//22 123//22 51//22
f 81//23 37//23 74//23
f 19//24 44//24 124//24 37//24
f 44//24 1//24 98//24 124//24
f 17//3 66//3 125//3 112//3
f 82//2 66//2 17//2
f 70//25 76//25 16//25
f 70//25 39//25 76//25
f 15//26 98//26 126//26 39//26
f 49//27 71//27 91//27
f 71//27 10//27 91//27
f 105//28 8//28 89//28 127//28
f 110//29 113//29 105//29
f 79//30 8//30 113//30
f 11//1 68//1 128//1 79//1
f 85//31 40//31 55//31
f 40//32 129//32 56//32 6//32
f 89//33 95//33 86//33
f 60//34 4//34 95//34
f 42//35 1//35 93//35 130//35
usemtl Diamond_Green
f 7//34 60//34 78//34
f 11//30 79//30 103//30
f 127//28 89//28 9//28 85//28
f 124//24 98//24 15//24 70//24
f 123//22 82//22 17//22 65//22
f 24//36 54//36 48//36
f 121//19 92//19 21//19 97//19
f 29//37 59//37 114//37
f 33//12 100//12 46//12
f 4//11 104//11 52//11
f 2//10 84//10 57//10
f 2//10 61//10 111//10
f 90//10 35//10 77//10
f 61//10 22//10 69//10
f 109//10 57//10 55//10
f 106//10 34//10 108//10
f 56//38 87//38 106//38
f 5//9 50//9 115//9 87//9
f 52//11 104//11 50//11
f 83//39 116//39 58//39 32//39
f 3//39 93//39 116//39 83//39
f 93//39 1//39 47//39 116//39
f 100//7 117//7 114//7 30//7
f 67//14 53//14 33//14
f 58//6 107//6 62//6
f 107//15 118//15 88//15 28//15
f 59//16 119//16 72//16 26//16
f 99//17 75//17 64//17
f 27//5 101//5 120//5 38//5
f 72//4 80//4 96//4
f 54//36 20//36 45//36
f 102//40 122//40 81//40 20//40
f 23//40 73//40 122//40 102//40
f 92//41 63//41 21//41
f 37//24 124//24 70//24 16//24
f 65//42 94//42 18//42
f 112//42 14//42 94//42
f 66//3 12//3 110//3 125//3
f 39//25 12//25 76//25
f 49//27 91//27 14//27
f 13//28 105//28 127//28 71//28
f 103//30 79//30 113//30
f 68//1 1//1 42//1 128//1
f 86//32 4//32 52//32 129//32
f 78//34 95//34 8//34
usemtl Diamond_Blue
f 130//35 93//35 3//35 41//35
f 8//33 95//33 89//33
f 129//32 52//32 5//32 56//32
f 9//31 40//31 85//31
f 12//29 113//29 110//29
f 13//27 71//27 49//27
f 126//26 68//26 11//26 103//26
f 15//25 39//25 70//25
f 17//42 112//42 65//42
f 19//23 37//23 81//23
f 20//41 74//41 92//41
f 21//21 51//21 97//21
f 122//40 44//40 19//40 81//40
f 23//20 102//20 36//20
f 27//18 38//18 88//18
f 28//17 75//17 99//17
f 119//16 48//16 25//16 72//16
f 118//15 101//15 27//15 88//15
f 32//14 62//14 67//14
f 116//39 47//39 31//39 58//39
f 5//38 87//38 56//38
f 6//10 106//10 109//10
f 2//10 57//10 109//10
f 2//10 111//10 84//10
f 2//10 35//10 90//10
f 2//10 108//10 35//10
f 35//10 43//10 30//10
f 108//10 34//10 43//10
f 61//10 96//10 22//10
f 61//10 90//10 96//10
f 90//10 26//10 96//10
f 84//10 111//10 94//10
f 111//10 18//10 94//10
f 57//10 91//10 10//10
f 84//10 14//10 91//10
f 57//10 10//10 55//10
f 109//10 106//10 108//10
f 56//38 106//38 6//38
f 87//38 34//38 106//38
f 50//9 32//9 67//9 115//9
f 104//11 32//11 50//11
f 41//8 104//8 4//8
f 83//8 32//8 104//8
f 100//12 30//12 43//12
f 33//7 53//7 117//7 100//7
f 53//7 28//7 99//7 117//7
f 67//14 62//14 53//14
f 58//6 62//6 32//6
f 107//6 28//6 62//6
f 31//15 47//15 118//15 107//15
f 114//37 77//37 30//37
f 114//37 59//37 77//37
f 59//37 26//37 77//37
f 64//16 24//16 48//16 119//16
f 99//17 64//17 29//17
f 38//5 120//5 36//5 24//5
f 101//5 1//5 73//5 120//5
f 72//4 96//4 26//4
f 80//19 121//19 97//19 22//19
f 48//36 45//36 25//36
f 48//36 54//36 45//36
f 36//20 54//20 24//20
f 102//20 20//20 54//20
f 73//40 1//40 44//40 122//40
f 97//21 51//21 69//21
f 51//21 18//21 69//21
f 51//22 123//22 65//22 18//22
f 63//22 16//22 82//22 123//22
f 92//41 74//41 63//41
f 74//41 16//41 63//41
f 81//23 74//23 20//23
f 37//23 16//23 74//23
f 65//42 112//42 94//42
f 112//3 125//3 49//3 14//3
f 82//2 76//2 66//2
f 76//2 12//2 66//2
f 39//26 126//26 103//26 12//26
f 98//26 1//26 68//26 126//26
f 71//28 127//28 85//28 10//28
f 110//29 105//29 13//29
f 113//29 8//29 105//29
f 103//30 113//30 12//30
f 79//1 128//1 78//1 8//1
f 85//31 55//31 10//31
f 40//31 6//31 55//31
f 9//32 86//32 129//32 40//32
f 89//33 86//33 9//33
f 95//33 4//33 86//33
f 78//34 60//34 95//34
f 60//35 130//35 41//35 4//35
f 7//35 42//35 130//35 60//35
