# Blender v2.78 (sub 0) OBJ File: ''
# www.blender.org
mtllib fancyTable.mtl
o Cylinder02
v 0.527959 0.967110 0.384812
v 0.652992 0.967111 0.000000
v 0.652992 1.018879 0.000000
v 0.527959 1.018879 0.384812
v 0.200619 0.967110 0.622638
v 0.200619 1.018879 0.622638
v -0.203996 0.967110 0.622638
v -0.203996 1.018879 0.622638
v -0.531336 0.967110 0.384812
v -0.531336 1.018879 0.384812
v -0.656369 0.967111 0.000000
v -0.656369 1.018879 0.000000
v -0.531336 0.967111 -0.384811
v -0.531336 1.018879 -0.384811
v -0.203996 0.967111 -0.622638
v -0.203996 1.018879 -0.622638
v 0.200619 0.967111 -0.622638
v 0.200619 1.018879 -0.622638
v 0.527959 0.967111 -0.384811
v 0.527959 1.018879 -0.384811
v 0.043940 0.364080 -0.049006
v 0.062840 0.364080 -0.003378
v 0.062840 0.177548 -0.003378
v 0.043940 0.177548 -0.049006
v -0.001689 0.364080 -0.067906
v -0.001689 0.177548 -0.067906
v -0.047318 0.364080 -0.049006
v -0.047318 0.177548 -0.049006
v -0.066218 0.364080 -0.003378
v -0.066218 0.177548 -0.003378
v -0.047318 0.364080 0.042251
v -0.047318 0.177548 0.042251
v -0.001689 0.364080 0.061151
v -0.001689 0.177548 0.061151
v 0.043940 0.364080 0.042251
v 0.043940 0.177548 0.042251
v 0.061157 0.416858 -0.066223
v 0.087188 0.416858 -0.003378
v -0.001689 0.416858 -0.092255
v -0.064534 0.416858 -0.066223
v -0.090566 0.416858 -0.003378
v -0.064534 0.416858 0.059468
v -0.001689 0.416858 0.085500
v 0.061157 0.416858 0.059468
v 0.061157 0.506455 -0.066223
v 0.087188 0.506455 -0.003378
v -0.001689 0.506455 -0.092255
v -0.064534 0.506455 -0.066223
v -0.090566 0.506455 -0.003377
v -0.064534 0.506455 0.059468
v -0.001689 0.506455 0.085500
v 0.061157 0.506455 0.059468
v 0.043940 0.559233 -0.049006
v 0.062840 0.559233 -0.003377
v -0.001689 0.559233 -0.067906
v -0.047318 0.559233 -0.049006
v -0.066218 0.559233 -0.003377
v -0.047318 0.559233 0.042251
v -0.001689 0.559233 0.061151
v 0.043940 0.559233 0.042251
v 0.043940 0.974659 -0.049006
v 0.062840 0.974659 -0.003377
v -0.001689 0.974659 -0.067906
v -0.047318 0.974659 -0.049006
v -0.066218 0.974659 -0.003377
v -0.047318 0.974659 0.042251
v -0.001689 0.974659 0.061151
v 0.043940 0.974659 0.042251
v 0.011133 0.048686 0.436241
v -0.012750 0.048686 0.436241
v -0.012750 0.007742 0.465195
v 0.011133 0.007742 0.465195
v 0.011133 0.178615 0.113454
v -0.012750 0.178615 0.113454
v -0.012750 0.178615 0.016652
v 0.011133 0.178615 0.016652
v 0.011133 0.094428 0.176617
v -0.012750 0.094428 0.176617
v 0.011133 0.069597 0.277169
v -0.012750 0.069597 0.277169
v 0.011133 0.007742 0.368707
v -0.012750 0.007742 0.368707
v 0.011133 0.261986 0.113140
v 0.011133 0.261986 0.016652
v 0.011133 0.156502 0.202283
v 0.011133 0.115977 0.291655
v 0.011133 0.069838 0.368707
v -0.012750 0.261986 0.113140
v -0.012750 0.261986 0.016652
v -0.012750 0.156502 0.202283
v -0.012750 0.115977 0.291655
v -0.012750 0.069838 0.368707
v 0.315817 0.048686 -0.320128
v 0.332166 0.048686 -0.302718
v 0.353273 0.007742 -0.322539
v 0.336924 0.007742 -0.339949
v 0.080515 0.178615 -0.099166
v 0.096864 0.178615 -0.081756
v 0.026299 0.178615 -0.015490
v 0.009950 0.178615 -0.032900
v 0.126559 0.094428 -0.142404
v 0.142908 0.094428 -0.124994
v 0.199858 0.069597 -0.211236
v 0.216208 0.069597 -0.193826
v 0.266587 0.007742 -0.273899
v 0.282936 0.007742 -0.256489
v 0.080287 0.261987 -0.098951
v 0.009950 0.261986 -0.032900
v 0.145269 0.156502 -0.159973
v 0.210418 0.115977 -0.221153
v 0.266587 0.069838 -0.273899
v 0.096636 0.261986 -0.081541
v 0.026299 0.261986 -0.015490
v 0.161618 0.156502 -0.142563
v 0.226767 0.115977 -0.203743
v 0.282936 0.069838 -0.256489
v -0.317836 0.048686 -0.320973
v -0.338943 0.007742 -0.340794
v -0.355292 0.007742 -0.323384
v -0.334185 0.048686 -0.303563
v -0.082535 0.178615 -0.100010
v -0.011969 0.178615 -0.033745
v -0.028318 0.178615 -0.016335
v -0.098884 0.178615 -0.082600
v -0.128579 0.094428 -0.143248
v -0.144928 0.094428 -0.125838
v -0.201878 0.069597 -0.212081
v -0.218227 0.069597 -0.194671
v -0.268606 0.007742 -0.274743
v -0.284955 0.007742 -0.257333
v -0.082306 0.261987 -0.099795
v -0.011969 0.261986 -0.033745
v -0.147288 0.156502 -0.160818
v -0.212438 0.115977 -0.221997
v -0.268606 0.069838 -0.274743
v -0.098655 0.261986 -0.082385
v -0.028318 0.261986 -0.016335
v -0.163637 0.156502 -0.143408
v -0.228787 0.115977 -0.204587
v -0.284955 0.069838 -0.257333
vt 0.9890 0.2703
vt 0.6029 0.2703
vt 0.6029 0.2140
vt 0.9890 0.2140
vt 0.9890 0.2703
vt 0.6029 0.2703
vt 0.6029 0.2140
vt 0.9890 0.2140
vt 0.9890 0.2703
vt 0.6029 0.2703
vt 0.6029 0.2140
vt 0.9890 0.2140
vt 0.9890 0.2703
vt 0.6029 0.2703
vt 0.6029 0.2140
vt 0.9890 0.2140
vt 0.9890 0.2703
vt 0.6029 0.2703
vt 0.6029 0.2140
vt 0.9890 0.2140
vt 0.9890 0.2703
vt 0.6029 0.2703
vt 0.6029 0.2140
vt 0.9890 0.2140
vt 0.9890 0.2703
vt 0.6029 0.2703
vt 0.6029 0.2140
vt 0.9890 0.2140
vt 0.9890 0.2703
vt 0.6029 0.2703
vt 0.6029 0.2140
vt 0.9890 0.2140
vt 0.9890 0.2703
vt 0.6029 0.2703
vt 0.6029 0.2140
vt 0.9890 0.2140
vt 0.9890 0.2703
vt 0.6029 0.2703
vt 0.6029 0.2140
vt 0.9890 0.2140
vt 0.3673 0.8453
vt 0.9982 0.6297
vt 0.7572 0.9785
vt 0.5417 0.9785
vt 0.3673 0.4142
vt 0.3007 0.6297
vt 0.7572 0.2809
vt 0.5417 0.2809
vt 0.5417 0.2809
vt 0.9316 0.8453
vt 0.9316 0.4142
vt 0.7572 0.2809
vt 0.3007 0.6297
vt 0.3673 0.4142
vt 0.5417 0.9785
vt 0.3673 0.8453
vt 0.2412 0.7571
vt 0.2044 0.7571
vt 0.2044 0.6882
vt 0.2412 0.6882
vt 0.2781 0.7571
vt 0.2781 0.6882
vt 0.3149 0.7571
vt 0.3149 0.6882
vt 0.0569 0.7571
vt 0.0201 0.7571
vt 0.0201 0.6882
vt 0.0569 0.6882
vt 0.0938 0.7571
vt 0.0938 0.6882
vt 0.1306 0.7571
vt 0.1306 0.6882
vt 0.1675 0.7571
vt 0.1675 0.6882
vt 0.2412 0.7766
vt 0.2044 0.7766
vt 0.2781 0.7766
vt 0.3149 0.7766
vt 0.0569 0.7766
vt 0.0201 0.7766
vt 0.0938 0.7766
vt 0.1306 0.7766
vt 0.1675 0.7766
vt 0.2412 0.8097
vt 0.2044 0.8097
vt 0.2781 0.8097
vt 0.3149 0.8097
vt 0.0569 0.8097
vt 0.0201 0.8097
vt 0.0938 0.8097
vt 0.1306 0.8097
vt 0.1675 0.8097
vt 0.2412 0.8292
vt 0.2044 0.8292
vt 0.2781 0.8292
vt 0.3149 0.8292
vt 0.0569 0.8292
vt 0.0201 0.8292
vt 0.0938 0.8292
vt 0.1306 0.8292
vt 0.1675 0.8292
vt 0.2412 0.9827
vt 0.2044 0.9827
vt 0.2781 0.9827
vt 0.3149 0.9827
vt 0.0569 0.9827
vt 0.0201 0.9827
vt 0.0938 0.9827
vt 0.1306 0.9827
vt 0.1675 0.9827
vt 0.5696 0.1423
vt 0.5696 0.1423
vt 0.5837 0.0694
vt 0.5837 0.0694
vt 0.2204 0.5029
vt 0.2204 0.5029
vt 0.0928 0.5571
vt 0.0928 0.5571
vt 0.2542 0.3510
vt 0.2542 0.3510
vt 0.3722 0.2603
vt 0.3722 0.2603
vt 0.4565 0.1234
vt 0.4565 0.1234
vt 0.2690 0.6185
vt 0.1418 0.6725
vt 0.3245 0.4226
vt 0.4185 0.3164
vt 0.4930 0.2094
vt 0.2690 0.6185
vt 0.1418 0.6725
vt 0.3245 0.4226
vt 0.4185 0.3164
vt 0.4930 0.2094
vt 0.5696 0.1423
vt 0.5696 0.1423
vt 0.5837 0.0694
vt 0.5837 0.0694
vt 0.2204 0.5029
vt 0.2204 0.5029
vt 0.0928 0.5571
vt 0.0928 0.5571
vt 0.2542 0.3510
vt 0.2542 0.3510
vt 0.3722 0.2603
vt 0.3722 0.2603
vt 0.4565 0.1234
vt 0.4565 0.1234
vt 0.2690 0.6185
vt 0.1418 0.6725
vt 0.3245 0.4226
vt 0.4185 0.3164
vt 0.4930 0.2094
vt 0.2690 0.6185
vt 0.1418 0.6725
vt 0.3245 0.4226
vt 0.4185 0.3164
vt 0.4930 0.2094
vt 0.5696 0.1423
vt 0.5837 0.0694
vt 0.5837 0.0694
vt 0.5696 0.1423
vt 0.2204 0.5029
vt 0.0928 0.5571
vt 0.0928 0.5571
vt 0.2204 0.5029
vt 0.2542 0.3510
vt 0.2542 0.3510
vt 0.3722 0.2603
vt 0.3722 0.2603
vt 0.4565 0.1234
vt 0.4565 0.1234
vt 0.2690 0.6185
vt 0.1418 0.6725
vt 0.3245 0.4226
vt 0.4185 0.3164
vt 0.4930 0.2094
vt 0.2690 0.6185
vt 0.1418 0.6725
vt 0.3245 0.4226
vt 0.4185 0.3164
vt 0.4930 0.2094
vt 0.9316 0.4142
vt 0.9316 0.8453
vt 0.7572 0.9785
vt 0.9982 0.6297
vn 0.6191 -0.6437 0.4498
vn 0.7653 -0.6437 0.0000
vn 0.7653 0.6437 0.0000
vn 0.6191 0.6437 0.4498
vn 0.2365 -0.6437 0.7278
vn 0.2365 0.6437 0.7278
vn -0.2365 -0.6437 0.7278
vn -0.2365 0.6437 0.7278
vn -0.6191 -0.6437 0.4498
vn -0.6191 0.6437 0.4498
vn -0.7653 -0.6437 0.0000
vn -0.7653 0.6437 0.0000
vn -0.6191 -0.6437 -0.4498
vn -0.6191 0.6437 -0.4498
vn -0.2365 -0.6437 -0.7278
vn -0.2365 0.6437 -0.7278
vn 0.2365 -0.6437 -0.7278
vn 0.2365 0.6437 -0.7278
vn 0.6191 -0.6437 -0.4498
vn 0.6191 0.6437 -0.4498
vn 0.6887 -0.2263 -0.6887
vn 0.9741 -0.2263 0.0000
vn 1.0000 0.0000 0.0000
vn 0.7071 0.0000 -0.7071
vn 0.0000 -0.2263 -0.9741
vn 0.0000 0.0000 -1.0000
vn -0.6887 -0.2263 -0.6887
vn -0.7071 0.0000 -0.7071
vn -0.9741 -0.2263 0.0000
vn -1.0000 0.0000 0.0000
vn -0.6887 -0.2263 0.6887
vn -0.7071 0.0000 0.7071
vn 0.0000 -0.2263 0.9741
vn 0.0000 0.0000 1.0000
vn 0.6887 -0.2263 0.6887
vn 0.7071 0.0000 0.7071
vn 0.6922 -0.2042 -0.6922
vn 0.9789 -0.2042 0.0000
vn 0.0000 -0.2042 -0.9789
vn -0.6922 -0.2042 -0.6922
vn -0.9789 -0.2042 0.0000
vn -0.6922 -0.2042 0.6922
vn 0.0000 -0.2042 0.9789
vn 0.6922 -0.2042 0.6922
vn 0.6922 0.2042 -0.6922
vn 0.9789 0.2042 0.0000
vn 0.0000 0.2042 -0.9789
vn -0.6922 0.2042 -0.6922
vn -0.9789 0.2042 0.0000
vn -0.6922 0.2042 0.6922
vn 0.0000 0.2042 0.9789
vn 0.6922 0.2042 0.6922
vn 0.6887 0.2263 -0.6887
vn 0.9741 0.2263 0.0000
vn 0.0000 0.2263 -0.9741
vn -0.6887 0.2263 -0.6887
vn -0.9741 0.2263 0.0000
vn -0.6887 0.2263 0.6887
vn 0.0000 0.2263 0.9741
vn 0.6887 0.2263 0.6887
vn 0.6416 0.6200 0.4515
vn -0.6416 0.6200 0.4515
vn -0.5196 0.4933 0.6976
vn 0.5196 0.4933 0.6976
vn 0.8228 -0.5083 -0.2541
vn -0.8228 -0.5083 -0.2541
vn -0.7071 -0.7071 0.0000
vn 0.7071 -0.7071 0.0000
vn 0.6387 -0.6416 -0.4246
vn -0.6387 -0.6416 -0.4246
vn 0.7487 -0.6057 -0.2692
vn -0.7487 -0.6057 -0.2692
vn 0.8512 -0.4349 -0.2939
vn -0.8512 -0.4349 -0.2939
vn 0.6235 0.7092 0.3292
vn 0.7071 0.7071 0.0000
vn 0.7601 0.5183 0.3919
vn 0.6945 0.6373 0.3339
vn 0.7346 0.6191 0.2776
vn -0.6235 0.7092 0.3292
vn -0.7071 0.7071 0.0000
vn -0.7601 0.5183 0.3919
vn -0.6945 0.6373 0.3339
vn -0.7346 0.6191 0.2776
vn -0.1101 0.6200 -0.7768
vn 0.7684 0.6200 0.1587
vn 0.8642 0.4933 -0.0988
vn 0.1528 0.4933 -0.8563
vn -0.7485 -0.5083 -0.4259
vn 0.3780 -0.5083 0.7737
vn 0.4840 -0.7071 0.5155
vn -0.4840 -0.7071 -0.5155
vn -0.7468 -0.6416 -0.1749
vn 0.1277 -0.6416 0.7563
vn -0.7088 -0.6057 -0.3615
vn 0.3163 -0.6057 0.7301
vn -0.7969 -0.4349 -0.4193
vn 0.3684 -0.4349 0.8216
vn -0.1868 0.7092 -0.6798
vn -0.4840 0.7071 -0.5155
vn -0.2346 0.5183 -0.8224
vn -0.2320 0.6373 -0.7349
vn -0.3005 0.6191 -0.7255
vn 0.6667 0.7092 0.2292
vn 0.4840 0.7071 0.5155
vn 0.8060 0.5183 0.2858
vn 0.7188 0.6373 0.2777
vn 0.7052 0.6191 0.3454
vn 0.1101 0.6200 -0.7768
vn -0.1528 0.4933 -0.8563
vn -0.8642 0.4933 -0.0988
vn -0.7684 0.6200 0.1587
vn 0.7485 -0.5083 -0.4259
vn 0.4840 -0.7071 -0.5155
vn -0.4840 -0.7071 0.5155
vn -0.3780 -0.5083 0.7737
vn 0.7468 -0.6416 -0.1749
vn -0.1277 -0.6416 0.7563
vn 0.7088 -0.6057 -0.3615
vn -0.3163 -0.6057 0.7301
vn 0.7969 -0.4349 -0.4193
vn -0.3684 -0.4349 0.8216
vn 0.1868 0.7092 -0.6798
vn 0.4840 0.7071 -0.5155
vn 0.2346 0.5183 -0.8224
vn 0.2320 0.6373 -0.7349
vn 0.3005 0.6191 -0.7255
vn -0.6667 0.7092 0.2292
vn -0.4840 0.7071 0.5155
vn -0.8060 0.5183 0.2858
vn -0.7188 0.6373 0.2777
vn -0.7052 0.6191 0.3454
usemtl Material.001
s 1
f 1/1/1 2/2/2 3/3/3 4/4/4
f 5/5/5 1/6/1 4/7/4 6/8/6
f 7/9/7 5/10/5 6/11/6 8/12/8
f 9/13/9 7/14/7 8/15/8 10/16/10
f 11/17/11 9/18/9 10/19/10 12/20/12
f 13/21/13 11/22/11 12/23/12 14/24/14
f 15/25/15 13/26/13 14/27/14 16/28/16
f 17/29/17 15/30/15 16/31/16 18/32/18
f 19/33/19 17/34/17 18/35/18 20/36/20
f 2/37/2 19/38/19 20/39/20 3/40/3
f 14/41/14 3/42/3 18/43/18 16/44/16
f 10/45/10 3/42/3 14/41/14 12/46/12
f 6/47/6 3/42/3 10/45/10 8/48/8
f 7/49/7 19/50/19 1/51/1 5/52/5
f 11/53/11 19/50/19 7/49/7 9/54/9
f 15/55/15 19/50/19 11/53/11 13/56/13
f 21/57/21 22/58/22 23/59/23 24/60/24
f 25/61/25 21/57/21 24/60/24 26/62/26
f 27/63/27 25/61/25 26/62/26 28/64/28
f 29/65/29 27/66/27 28/67/28 30/68/30
f 31/69/31 29/65/29 30/68/30 32/70/32
f 33/71/33 31/69/31 32/70/32 34/72/34
f 35/73/35 33/71/33 34/72/34 36/74/36
f 22/58/22 35/73/35 36/74/36 23/59/23
f 37/75/37 38/76/38 22/58/22 21/57/21
f 39/77/39 37/75/37 21/57/21 25/61/25
f 40/78/40 39/77/39 25/61/25 27/63/27
f 41/79/41 40/80/40 27/66/27 29/65/29
f 42/81/42 41/79/41 29/65/29 31/69/31
f 43/82/43 42/81/42 31/69/31 33/71/33
f 44/83/44 43/82/43 33/71/33 35/73/35
f 38/76/38 44/83/44 35/73/35 22/58/22
f 45/84/45 46/85/46 38/76/38 37/75/37
f 47/86/47 45/84/45 37/75/37 39/77/39
f 48/87/48 47/86/47 39/77/39 40/78/40
f 49/88/49 48/89/48 40/80/40 41/79/41
f 50/90/50 49/88/49 41/79/41 42/81/42
f 51/91/51 50/90/50 42/81/42 43/82/43
f 52/92/52 51/91/51 43/82/43 44/83/44
f 46/85/46 52/92/52 44/83/44 38/76/38
f 53/93/53 54/94/54 46/85/46 45/84/45
f 55/95/55 53/93/53 45/84/45 47/86/47
f 56/96/56 55/95/55 47/86/47 48/87/48
f 57/97/57 56/98/56 48/89/48 49/88/49
f 58/99/58 57/97/57 49/88/49 50/90/50
f 59/100/59 58/99/58 50/90/50 51/91/51
f 60/101/60 59/100/59 51/91/51 52/92/52
f 54/94/54 60/101/60 52/92/52 46/85/46
f 61/102/24 62/103/23 54/94/54 53/93/53
f 63/104/26 61/102/24 53/93/53 55/95/55
f 64/105/28 63/104/26 55/95/55 56/96/56
f 65/106/30 64/107/28 56/98/56 57/97/57
f 66/108/32 65/106/30 57/97/57 58/99/58
f 67/109/34 66/108/32 58/99/58 59/100/59
f 68/110/36 67/109/34 59/100/59 60/101/60
f 62/103/23 68/110/36 60/101/60 54/94/54
f 69/111/61 70/112/62 71/113/63 72/114/64
f 73/115/65 74/116/66 75/117/67 76/118/68
f 77/119/69 78/120/70 74/116/66 73/115/65
f 79/121/71 80/122/72 78/120/70 77/119/69
f 81/123/73 82/124/74 80/122/72 79/121/71
f 83/125/75 73/115/65 76/118/68 84/126/76
f 85/127/77 77/119/69 73/115/65 83/125/75
f 86/128/78 79/121/71 77/119/69 85/127/77
f 87/129/79 81/123/73 79/121/71 86/128/78
f 69/111/61 72/114/64 81/123/73 87/129/79
f 88/130/80 83/125/75 84/126/76 89/131/81
f 90/132/82 85/127/77 83/125/75 88/130/80
f 91/133/83 86/128/78 85/127/77 90/132/82
f 92/134/84 87/129/79 86/128/78 91/133/83
f 70/112/62 69/111/61 87/129/79 92/134/84
f 74/116/66 88/130/80 89/131/81 75/117/67
f 78/120/70 90/132/82 88/130/80 74/116/66
f 80/122/72 91/133/83 90/132/82 78/120/70
f 82/124/74 92/134/84 91/133/83 80/122/72
f 71/113/63 70/112/62 92/134/84 82/124/74
f 93/135/85 94/136/86 95/137/87 96/138/88
f 97/139/89 98/140/90 99/141/91 100/142/92
f 101/143/93 102/144/94 98/140/90 97/139/89
f 103/145/95 104/146/96 102/144/94 101/143/93
f 105/147/97 106/148/98 104/146/96 103/145/95
f 107/149/99 97/139/89 100/142/92 108/150/100
f 109/151/101 101/143/93 97/139/89 107/149/99
f 110/152/102 103/145/95 101/143/93 109/151/101
f 111/153/103 105/147/97 103/145/95 110/152/102
f 93/135/85 96/138/88 105/147/97 111/153/103
f 112/154/104 107/149/99 108/150/100 113/155/105
f 114/156/106 109/151/101 107/149/99 112/154/104
f 115/157/107 110/152/102 109/151/101 114/156/106
f 116/158/108 111/153/103 110/152/102 115/157/107
f 94/136/86 93/135/85 111/153/103 116/158/108
f 98/140/90 112/154/104 113/155/105 99/141/91
f 102/144/94 114/156/106 112/154/104 98/140/90
f 104/146/96 115/157/107 114/156/106 102/144/94
f 106/148/98 116/158/108 115/157/107 104/146/96
f 95/137/87 94/136/86 116/158/108 106/148/98
f 117/159/109 118/160/110 119/161/111 120/162/112
f 121/163/113 122/164/114 123/165/115 124/166/116
f 125/167/117 121/163/113 124/166/116 126/168/118
f 127/169/119 125/167/117 126/168/118 128/170/120
f 129/171/121 127/169/119 128/170/120 130/172/122
f 131/173/123 132/174/124 122/164/114 121/163/113
f 133/175/125 131/173/123 121/163/113 125/167/117
f 134/176/126 133/175/125 125/167/117 127/169/119
f 135/177/127 134/176/126 127/169/119 129/171/121
f 117/159/109 135/177/127 129/171/121 118/160/110
f 136/178/128 137/179/129 132/174/124 131/173/123
f 138/180/130 136/178/128 131/173/123 133/175/125
f 139/181/131 138/180/130 133/175/125 134/176/126
f 140/182/132 139/181/131 134/176/126 135/177/127
f 120/162/112 140/182/132 135/177/127 117/159/109
f 124/166/116 123/165/115 137/179/129 136/178/128
f 126/168/118 124/166/116 136/178/128 138/180/130
f 128/170/120 126/168/118 138/180/130 139/181/131
f 130/172/122 128/170/120 139/181/131 140/182/132
f 119/161/111 130/172/122 140/182/132 120/162/112
f 6/47/6 4/183/4 3/42/3
f 20/184/20 18/43/18 3/42/3
f 15/55/15 17/185/17 19/50/19
f 2/186/2 1/51/1 19/50/19
