# Blender v2.77 (sub 0) OBJ File: 'Stuff.blend'
# www.blender.org
mtllib GoldBar.mtl
o GoldBar_Cube.002
v -0.148333 -0.031871 0.049265
v -0.148333 -0.031871 -0.049265
v 0.148333 -0.031871 -0.049265
v 0.148333 -0.031871 0.049265
v -0.119502 0.031871 0.039690
v -0.119502 0.031871 -0.039690
v 0.119502 0.031871 -0.039690
v 0.119502 0.031871 0.039690
v -0.148333 -0.031871 0.041321
v 0.148333 -0.031871 0.041321
v -0.119502 0.031871 0.033290
v 0.119502 0.031871 0.033290
vn -0.432900 0.715500 0.548200
vn -0.542200 0.840300 0.000000
vn -0.840300 -0.542200 0.000000
vn -0.683600 -0.422900 0.594800
vn 0.683600 -0.422900 0.594800
vn 0.840300 -0.542200 0.000000
vn -0.432900 0.715500 -0.548200
vn 0.432900 0.715500 -0.548200
vn 0.683600 -0.422900 -0.594800
vn -0.683600 -0.422900 -0.594800
vn 0.542200 0.840300 0.000000
vn 0.432900 0.715500 0.548200
usemtl Gold
s 1
f 5//1 11//2 9//3 1//4
f 4//5 1//4 9//3 10//6
f 6//7 7//8 3//9 2//10
f 12//11 11//2 5//1 8//12
f 4//5 8//12 5//1 1//4
f 11//2 6//7 2//10 9//3
f 7//8 12//11 10//6 3//9
f 12//11 8//12 4//5 10//6
f 10//6 9//3 2//10 3//9
f 11//2 12//11 7//8 6//7
