# Blender v2.78 (sub 0) OBJ File: 'untitled.blend'
# www.blender.org
mtllib oldTable.mtl
o old_wooden_table_Untitled
v -0.650000 0.700000 0.350000
v 0.650000 0.700000 0.350000
v -0.650000 0.700000 -0.350000
v 0.650000 0.700000 -0.350000
v -0.650000 0.730000 0.350000
v 0.650000 0.730000 0.350000
v -0.650000 0.730000 -0.350000
v 0.650000 0.730000 -0.350000
v 0.625000 0.700000 0.325000
v 0.575000 0.700000 0.325000
v 0.575000 0.700000 0.275000
v 0.625000 0.700000 0.275000
v 0.625000 0.700000 -0.325000
v 0.625000 0.700000 -0.275000
v 0.575000 0.700000 -0.275000
v 0.575000 0.700000 -0.325000
v -0.625000 0.700000 -0.325000
v -0.575000 0.700000 -0.325000
v -0.575000 0.700000 -0.275000
v -0.625000 0.700000 -0.275000
v -0.625000 0.700000 0.325000
v -0.625000 0.700000 0.275000
v -0.575000 0.700000 0.275000
v -0.575000 0.700000 0.325000
v 0.575000 0.700000 0.285000
v 0.575000 0.700000 0.315000
v -0.575000 0.700000 0.315000
v -0.575000 0.700000 0.285000
v 0.615000 0.700000 0.275000
v 0.585000 0.700000 0.275000
v 0.585000 0.700000 -0.275000
v 0.615000 0.700000 -0.275000
v 0.575000 0.700000 -0.315000
v 0.575000 0.700000 -0.285000
v -0.575000 0.700000 -0.285000
v -0.575000 0.700000 -0.315000
v -0.615000 0.700000 -0.275000
v -0.585000 0.700000 -0.275000
v -0.585000 0.700000 0.275000
v -0.615000 0.700000 0.275000
v 0.625000 0.630000 0.325000
v 0.575000 0.630000 0.325000
v 0.575000 0.630000 0.315000
v -0.575000 0.630000 0.315000
v -0.575000 0.630000 0.325000
v -0.625000 0.630000 0.325000
v -0.625000 0.630000 0.275000
v -0.615000 0.630000 0.275000
v -0.615000 0.630000 -0.275000
v -0.625000 0.630000 -0.275000
v -0.625000 0.630000 -0.325000
v -0.575000 0.630000 -0.325000
v -0.575000 0.630000 -0.315000
v 0.575000 0.630000 -0.315000
v 0.575000 0.630000 -0.325000
v 0.625000 0.630000 -0.325000
v 0.625000 0.630000 -0.275000
v 0.615000 0.630000 -0.275000
v 0.615000 0.630000 0.275000
v 0.625000 0.630000 0.275000
v 0.575000 0.630000 0.285000
v 0.575000 0.630000 0.275000
v 0.585000 0.630000 0.275000
v 0.585000 0.630000 -0.275000
v 0.575000 0.630000 -0.275000
v 0.575000 0.630000 -0.285000
v -0.575000 0.630000 -0.285000
v -0.575000 0.630000 -0.275000
v -0.585000 0.630000 -0.275000
v -0.585000 0.630000 0.275000
v -0.575000 0.630000 0.275000
v -0.575000 0.630000 0.285000
v 0.578997 0.000000 0.278997
v 0.618339 0.000000 0.278997
v 0.618339 0.000000 0.318339
v 0.578997 0.000000 0.318339
v 0.578997 0.000000 -0.278997
v 0.578997 0.000000 -0.318339
v 0.618339 0.000000 -0.318339
v 0.618339 0.000000 -0.278997
v -0.578997 0.000000 -0.278997
v -0.618339 0.000000 -0.278997
v -0.618339 0.000000 -0.318339
v -0.578997 0.000000 -0.318339
v -0.578997 0.000000 0.318339
v -0.618339 0.000000 0.318339
v -0.618339 0.000000 0.278997
v -0.578997 0.000000 0.278997
vt 0.5163 0.6559
vt 0.5163 0.6393
vt 0.5329 0.6393
vt 0.5329 0.6559
vt 0.5329 0.6559
vt 0.5163 0.6559
vt 0.5163 0.6393
vt 0.5329 0.6393
vt 0.5329 0.6393
vt 0.5329 0.6559
vt 0.5163 0.6559
vt 0.5163 0.6393
vt 0.5163 0.6393
vt 0.5329 0.6393
vt 0.5329 0.6559
vt 0.5163 0.6559
vt 0.0273 0.9938
vt 0.0020 0.9936
vt 0.0026 0.9581
vt 0.0279 0.9584
vt 0.0987 0.9943
vt 0.0937 0.9943
vt 0.0938 0.9588
vt 0.0982 0.9588
vt 0.5827 0.6235
vt 0.0020 0.6235
vt 0.0020 0.5881
vt 0.5827 0.5881
vt 0.9069 0.3571
vt 0.9023 0.3571
vt 0.9025 0.3216
vt 0.9067 0.3217
vt 0.8775 0.3570
vt 0.8782 0.3216
vt 0.8524 0.3569
vt 0.8529 0.3213
vt 0.9487 0.3574
vt 0.9438 0.3574
vt 0.9439 0.3219
vt 0.9481 0.3219
vt 0.4990 0.8251
vt 0.2212 0.8251
vt 0.2212 0.7898
vt 0.4990 0.7898
vt 0.7948 0.3573
vt 0.7900 0.3573
vt 0.7903 0.3218
vt 0.7945 0.3218
vt 0.7649 0.3571
vt 0.7657 0.3217
vt 0.7394 0.3567
vt 0.7402 0.3212
vt 0.8370 0.3574
vt 0.8321 0.3575
vt 0.8322 0.3220
vt 0.8365 0.3220
vt 0.5828 0.5223
vt 0.0020 0.5223
vt 0.0020 0.4869
vt 0.5828 0.4869
vt 0.1891 0.9978
vt 0.1847 0.9978
vt 0.1841 0.9620
vt 0.1879 0.9619
vt 0.1602 0.9980
vt 0.1602 0.9621
vt 0.1357 0.9980
vt 0.1363 0.9621
vt 0.1311 0.9980
vt 0.1322 0.9621
vt 0.4990 0.7246
vt 0.2213 0.7246
vt 0.2213 0.6893
vt 0.4990 0.6893
vt 0.0569 0.9940
vt 0.0522 0.9940
vt 0.0523 0.9585
vt 0.0564 0.9585
vt 0.0796 0.9942
vt 0.0747 0.9942
vt 0.0747 0.9587
vt 0.0793 0.9588
vt 0.0699 0.9942
vt 0.0705 0.9587
vt 0.2213 0.6388
vt 0.4990 0.6388
vt 0.4990 0.6741
vt 0.2213 0.6741
vt 0.1192 0.9977
vt 0.1144 0.9978
vt 0.1140 0.9620
vt 0.1183 0.9619
vt 0.2060 0.9978
vt 0.2012 0.9978
vt 0.2015 0.9619
vt 0.2054 0.9619
vt 0.0020 0.4364
vt 0.5828 0.4365
vt 0.5828 0.4718
vt 0.0020 0.4718
vt 0.8183 0.3574
vt 0.8134 0.3574
vt 0.8133 0.3220
vt 0.8178 0.3220
vt 0.8085 0.3574
vt 0.8089 0.3219
vt 0.2212 0.7393
vt 0.4990 0.7393
vt 0.4990 0.7746
vt 0.2212 0.7746
vt 0.9299 0.3574
vt 0.9250 0.3574
vt 0.9249 0.3219
vt 0.9294 0.3219
vt 0.9202 0.3574
vt 0.9207 0.3219
vt 0.0020 0.5376
vt 0.5827 0.5376
vt 0.5827 0.5730
vt 0.0020 0.5730
vt 0.0525 0.6392
vt 0.0743 0.6393
vt 0.0309 0.6391
vt 0.0107 0.6388
vt 0.0954 0.6394
vt 0.1810 0.6389
vt 0.2027 0.6388
vt 0.1586 0.6390
vt 0.1365 0.6391
vt 0.1156 0.6390
vt 0.7909 0.0026
vt 0.8124 0.0026
vt 0.7696 0.0024
vt 0.7497 0.0020
vt 0.8337 0.0027
vt 0.8805 0.0023
vt 0.9023 0.0024
vt 0.8602 0.0020
vt 0.9240 0.0024
vt 0.9453 0.0025
vt 0.0348 0.0348
vt 0.6913 0.0348
vt 0.6913 0.3883
vt 0.0348 0.3883
vt 0.0348 0.0197
vt 0.6913 0.0197
vt 0.7064 0.0348
vt 0.7064 0.3883
vt 0.6913 0.4035
vt 0.0348 0.4035
vt 0.0197 0.3883
vt 0.0197 0.0348
vt 0.0070 0.3757
vt 0.0070 0.3504
vt 0.0020 0.3504
vt 0.0020 0.0727
vt 0.0070 0.0727
vt 0.0070 0.0474
vt 0.7191 0.0474
vt 0.7191 0.0727
vt 0.7241 0.0727
vt 0.7241 0.3504
vt 0.7191 0.3504
vt 0.7191 0.3757
vt 0.6379 0.0736
vt 0.6379 0.3500
vt 0.0705 0.3500
vt 0.0705 0.0736
vt 0.0705 0.0736
vt 0.6379 0.0736
vt 0.6379 0.3500
vt 0.0705 0.3500
vt 0.0705 0.0736
vt 0.6379 0.0736
vt 0.0705 0.3500
vt 0.6379 0.3500
vt 0.0727 0.0070
vt 0.0727 0.0020
vt 0.6534 0.0020
vt 0.6534 0.0070
vt 0.6787 0.0070
vt 0.0474 0.0070
vt 0.6534 0.4161
vt 0.6534 0.4211
vt 0.0727 0.4211
vt 0.0727 0.4161
vt 0.0474 0.4161
vt 0.6787 0.4161
vn 0.0000 -1.0000 0.0000
vn 0.0000 0.0000 1.0000
vn -1.0000 0.0000 0.0000
vn 1.0000 0.0000 0.0000
vn 0.0000 0.0000 -1.0000
vn 0.0000 -0.0063 -1.0000
vn 0.9999 -0.0106 0.0000
vn 0.0000 -0.0106 0.9999
vn -1.0000 -0.0063 0.0000
vn 0.0000 -0.0106 -0.9999
vn 0.0000 -0.0063 1.0000
vn -0.9999 -0.0106 0.0000
vn 1.0000 -0.0063 0.0000
vn 0.0000 1.0000 -0.0000
usemtl old_wooden_table
s off
f 76/1/1 73/2/1 74/3/1
f 74/3/1 75/4/1 76/1/1
f 80/5/1 77/6/1 78/7/1
f 78/7/1 79/8/1 80/5/1
f 84/9/1 81/10/1 82/11/1
f 82/11/1 83/12/1 84/9/1
f 87/13/1 88/14/1 85/15/1
f 85/15/1 86/16/1 87/13/1
f 9/17/2 10/18/2 42/19/2
f 42/19/2 41/20/2 9/17/2
f 10/21/3 26/22/3 43/23/3
f 43/23/3 42/24/3 10/21/3
f 26/25/2 27/26/2 44/27/2
f 44/27/2 43/28/2 26/25/2
f 27/29/4 24/30/4 45/31/4
f 45/31/4 44/32/4 27/29/4
f 24/30/2 21/33/2 46/34/2
f 46/34/2 45/31/2 24/30/2
f 21/33/3 22/35/3 47/36/3
f 47/36/3 46/34/3 21/33/3
f 22/37/5 40/38/5 48/39/5
f 48/39/5 47/40/5 22/37/5
f 40/41/3 37/42/3 49/43/3
f 49/43/3 48/44/3 40/41/3
f 37/45/2 20/46/2 50/47/2
f 50/47/2 49/48/2 37/45/2
f 20/46/3 17/49/3 51/50/3
f 51/50/3 50/47/3 20/46/3
f 17/49/5 18/51/5 52/52/5
f 52/52/5 51/50/5 17/49/5
f 18/53/4 36/54/4 53/55/4
f 53/55/4 52/56/4 18/53/4
f 36/57/5 33/58/5 54/59/5
f 54/59/5 53/60/5 36/57/5
f 33/61/3 16/62/3 55/63/3
f 55/63/3 54/64/3 33/61/3
f 16/62/5 13/65/5 56/66/5
f 56/66/5 55/63/5 16/62/5
f 13/65/4 14/67/4 57/68/4
f 57/68/4 56/66/4 13/65/4
f 14/67/2 32/69/2 58/70/2
f 58/70/2 57/68/2 14/67/2
f 32/71/4 29/72/4 59/73/4
f 59/73/4 58/74/4 32/71/4
f 29/75/5 12/76/5 60/77/5
f 60/77/5 59/78/5 29/75/5
f 12/76/4 9/17/4 41/20/4
f 41/20/4 60/77/4 12/76/4
f 25/79/3 11/80/3 62/81/3
f 62/81/3 61/82/3 25/79/3
f 11/80/5 30/83/5 63/84/5
f 63/84/5 62/81/5 11/80/5
f 30/85/3 31/86/3 64/87/3
f 64/87/3 63/88/3 30/85/3
f 31/89/2 15/90/2 65/91/2
f 65/91/2 64/92/2 31/89/2
f 15/93/3 34/94/3 66/95/3
f 66/95/3 65/96/3 15/93/3
f 34/97/2 35/98/2 67/99/2
f 67/99/2 66/100/2 34/97/2
f 35/101/4 19/102/4 68/103/4
f 68/103/4 67/104/4 35/101/4
f 19/102/2 38/105/2 69/106/2
f 69/106/2 68/103/2 19/102/2
f 38/107/4 39/108/4 70/109/4
f 70/109/4 69/110/4 38/107/4
f 39/111/5 23/112/5 71/113/5
f 71/113/5 70/114/5 39/111/5
f 23/112/4 28/115/4 72/116/4
f 72/116/4 71/113/4 23/112/4
f 28/117/5 25/118/5 61/119/5
f 61/119/5 72/120/5 28/117/5
f 59/78/6 60/77/6 74/121/6
f 63/84/6 59/78/6 74/121/6
f 62/81/6 63/84/6 74/121/6
f 62/81/6 74/121/6 73/122/6
f 60/77/7 41/20/7 75/123/7
f 75/123/7 74/121/7 60/77/7
f 41/20/8 42/19/8 76/124/8
f 76/124/8 75/123/8 41/20/8
f 61/82/9 62/81/9 73/122/9
f 43/23/9 61/82/9 73/122/9
f 43/23/9 73/122/9 76/125/9
f 42/24/9 43/23/9 76/125/9
f 54/64/9 55/63/9 78/126/9
f 66/95/9 54/64/9 78/126/9
f 65/96/9 66/95/9 78/126/9
f 65/96/9 78/126/9 77/127/9
f 55/63/10 56/66/10 79/128/10
f 79/128/10 78/126/10 55/63/10
f 56/66/7 57/68/7 80/129/7
f 80/129/7 79/128/7 56/66/7
f 64/92/11 65/91/11 77/130/11
f 58/70/11 64/92/11 77/130/11
f 58/70/11 77/130/11 80/129/11
f 57/68/11 58/70/11 80/129/11
f 49/48/11 50/47/11 82/131/11
f 69/106/11 49/48/11 82/131/11
f 68/103/11 69/106/11 82/131/11
f 68/103/11 82/131/11 81/132/11
f 50/47/12 51/50/12 83/133/12
f 83/133/12 82/131/12 50/47/12
f 51/50/10 52/52/10 84/134/10
f 84/134/10 83/133/10 51/50/10
f 67/104/13 68/103/13 81/132/13
f 53/55/13 67/104/13 81/132/13
f 53/55/13 81/132/13 84/135/13
f 52/56/13 53/55/13 84/135/13
f 45/31/8 46/34/8 86/136/8
f 86/136/8 85/137/8 45/31/8
f 46/34/12 47/36/12 87/138/12
f 87/138/12 86/136/12 46/34/12
f 70/114/6 71/113/6 88/139/6
f 48/39/6 70/114/6 88/139/6
f 47/40/6 48/39/6 88/139/6
f 47/40/6 88/139/6 87/140/6
f 44/32/13 45/31/13 85/137/13
f 72/116/13 44/32/13 85/137/13
f 72/116/13 85/137/13 88/139/13
f 71/113/13 72/116/13 88/139/13
s 1
f 5/141/14 6/142/14 8/143/14
f 8/143/14 7/144/14 5/141/14
f 1/145/2 2/146/2 6/142/2
f 6/142/2 5/141/2 1/145/2
f 2/147/4 4/148/4 8/143/4
f 8/143/4 6/142/4 2/147/4
f 4/149/5 3/150/5 7/144/5
f 7/144/5 8/143/5 4/149/5
f 3/151/3 1/152/3 5/141/3
f 5/141/3 7/144/3 3/151/3
f 1/152/1 3/151/1 17/153/1
f 1/152/1 17/153/1 20/154/1
f 1/152/1 20/154/1 37/155/1
f 1/152/1 37/155/1 40/156/1
f 1/152/1 40/156/1 22/157/14
f 1/152/1 22/157/14 21/158/1
f 44/27/1 72/120/1 61/119/1
f 61/119/1 43/28/1 44/27/1
f 64/87/1 58/74/1 59/73/1
f 59/73/1 63/88/1 64/87/1
f 67/99/1 53/60/1 54/59/1
f 54/59/1 66/100/1 67/99/1
f 2/147/1 9/159/1 12/160/1
f 12/160/1 29/161/1 32/162/1
f 2/147/1 12/160/1 32/162/1
f 2/147/1 32/162/1 14/163/1
f 4/148/1 2/147/1 14/163/1
f 4/148/1 14/163/1 13/164/1
f 49/43/1 69/110/1 70/109/1
f 70/109/1 48/44/1 49/43/1
f 39/165/1 38/166/1 19/167/1
f 23/168/1 39/165/1 19/167/1
f 19/167/1 35/169/1 34/170/1
f 19/167/1 34/170/1 15/171/1
f 15/171/1 31/172/1 30/173/1
f 15/171/1 30/173/1 11/174/1
f 19/167/1 15/171/1 11/174/1
f 23/168/1 19/167/1 11/174/1
f 28/175/1 23/168/1 11/174/1
f 28/175/1 11/174/1 25/176/1
f 24/177/1 27/178/1 26/179/1
f 10/180/14 9/181/1 2/146/1
f 26/179/1 10/180/14 2/146/1
f 24/177/1 26/179/1 2/146/1
f 21/182/1 24/177/1 2/146/1
f 21/182/1 2/146/1 1/145/1
f 16/183/1 33/184/1 36/185/1
f 18/186/14 17/187/1 3/150/1
f 36/185/1 18/186/14 3/150/1
f 16/183/1 36/185/1 3/150/1
f 13/188/1 16/183/1 3/150/1
f 13/188/1 3/150/1 4/149/1
