# Blender v2.77 (sub 0) OBJ File: 'Stuff.blend'
# www.blender.org
mtllib Window.mtl
o Plane.002_Plane.015
v 0.361926 1.011263 0.150827
v -0.361926 1.005882 0.146219
v 0.361926 1.036693 0.130090
v -0.361926 1.039049 0.135411
v 0.361926 1.009274 0.123716
v -0.361926 1.008094 0.124774
v -0.361926 1.403061 0.143461
v 0.361926 1.401743 0.129166
v -0.361926 1.431944 0.146423
v 0.361926 1.422950 0.151467
v 0.361926 1.431796 0.125623
v -0.361926 1.420133 0.119745
v -0.361926 1.789354 0.127222
v 0.361926 1.795943 0.150811
v 0.361926 1.820208 0.128982
v -0.361926 1.817594 0.124974
v -0.361926 1.803867 0.152794
v 0.361926 1.792326 0.124391
v -0.019248 2.089014 0.136012
v -0.013991 0.692814 0.125638
v 0.011075 2.089013 0.147347
v 0.015051 0.692814 0.127922
v 0.013250 2.089014 0.125071
v -0.334893 2.086530 0.123039
v -0.478049 1.287946 0.508539
v -0.408164 2.236002 0.507840
v -0.361926 1.001881 0.129600
v 0.361926 1.006383 0.146342
v 0.361926 1.034655 0.144255
v 0.361926 1.019429 0.119131
v -0.361926 1.027532 0.149682
v -0.361926 1.034309 0.127235
v -0.361926 1.399298 0.137854
v 0.361926 1.421337 0.151255
v -0.361926 1.433267 0.143735
v 0.361926 1.432945 0.127122
v 0.361926 1.402714 0.126422
v -0.361926 1.429718 0.124541
v -0.361926 1.790601 0.146382
v -0.361926 1.791028 0.126350
v 0.361926 1.803974 0.151651
v 0.361926 1.818753 0.127496
v -0.361926 1.823347 0.133616
v 0.361926 1.789916 0.125260
v 0.014922 2.089013 0.127599
v 0.008577 0.692814 0.149020
v -0.000289 2.089013 0.152679
v -0.013746 2.089013 0.125474
v -0.017184 0.692813 0.139650
v 0.008680 0.692814 0.120910
v 0.457923 2.236137 0.443207
v 0.465256 0.501308 0.443202
v 0.509993 2.100052 0.506702
v 0.498493 1.368442 0.443202
v 0.396948 0.635431 0.557645
v 0.335395 0.694612 0.123281
v 0.497138 1.371802 0.509486
v 0.504818 0.693855 0.443202
v -0.457134 2.234236 0.507181
v -0.463143 0.501826 0.505488
v -0.396658 0.637843 0.557803
v -0.398571 2.147370 0.557754
v -0.337469 2.089328 0.556061
v -0.337049 0.692786 0.555074
v -0.335524 0.695399 0.123368
v 0.397394 2.147969 0.557568
v 0.337474 2.089498 0.556306
v 0.337611 0.692400 0.556506
v -0.474953 0.603012 0.510277
v -0.512540 2.089190 0.508502
v -0.512976 0.704406 0.507314
v -0.465258 0.501312 0.443202
v 0.462699 0.501919 0.503408
v 0.515974 2.078996 0.443202
v 0.412674 0.501774 0.507693
v 0.406069 2.236410 0.507695
v 0.512682 0.705230 0.507229
v 0.334664 2.087208 0.123108
v 0.456962 2.234531 0.507039
v -0.506438 0.697612 0.443202
v 0.000514 0.692813 0.152339
v -0.510510 2.093137 0.443202
v -0.457848 2.236198 0.443207
vn -0.000100 0.490700 0.871300
vn -0.522300 0.374800 0.765900
vn 0.001000 -1.000000 0.006500
vn -0.387800 0.021300 0.921500
vn -0.014000 0.014400 0.999800
vn -0.938400 0.345400 -0.008300
vn -0.000000 -1.000000 0.007200
vn 0.998000 -0.020900 0.060300
vn 0.968500 -0.236700 -0.076900
vn 0.930000 0.366700 0.023200
vn 0.000200 -1.000000 0.005300
vn -0.976400 -0.175900 0.125600
vn 0.000300 -0.021800 0.999800
vn 0.999500 0.023200 0.019300
vn -0.000200 0.491200 0.871000
vn -0.019100 0.000100 0.999800
vn 0.461400 -0.004800 0.887200
vn -1.000000 -0.000100 0.005100
vn -1.000000 -0.000500 0.006500
vn 0.937700 0.346400 -0.026600
vn 0.037200 0.999000 0.025700
vn 0.000100 1.000000 -0.004200
vn -0.002100 0.051900 0.998700
vn -0.000100 -1.000000 0.008300
vn -0.000400 -0.029500 0.999600
vn -0.521500 -0.000600 0.853200
vn 0.000900 1.000000 0.005600
vn -0.934200 -0.352000 -0.058000
vn -0.933900 0.356900 0.021400
vn -0.036400 0.998900 0.031000
vn 1.000000 -0.000500 0.006000
vn -0.998500 -0.043000 -0.033600
vn 0.027800 0.000100 0.999600
vn -0.908200 -0.002600 0.418600
vn -0.992400 0.059600 -0.107500
vn -0.389400 -0.016700 0.920900
vn 0.046400 -0.000700 0.998900
vn -0.464000 -0.148500 0.873300
vn -0.484300 -0.097700 0.869400
vn 1.000000 0.000300 0.003500
vn 0.000300 0.020300 0.999800
vn 0.003800 -0.999900 0.010300
vn 0.013000 0.002600 0.999900
vn 0.460700 -0.129800 0.878000
vn -0.021200 0.000100 0.999800
vn 0.992300 0.009300 -0.123500
vn 0.510800 0.383700 0.769300
vn -0.002400 -0.350300 0.936600
vn 0.081200 -0.340500 0.936700
vn 0.396300 0.006100 0.918100
vn 0.978600 -0.201100 0.043600
vn -0.000900 -0.358600 0.933500
vn -0.000500 1.000000 0.003400
vn 0.411700 -0.000100 0.911300
vn 0.000100 0.000200 1.000000
vn -0.000100 0.000100 1.000000
vn 0.001700 -0.997300 0.073200
vn -0.006400 0.226400 -0.974000
vn -0.001900 0.325000 -0.945700
vn -0.013000 -0.811500 -0.584200
vn -0.008200 -0.102000 0.994700
vn -0.878700 -0.006900 0.477300
vn 0.859200 -0.004700 0.511600
vn 0.961000 -0.000100 0.276700
vn -0.014400 -0.616400 0.787300
vn -0.007300 0.957300 0.289000
vn 0.013300 -0.800000 0.599900
vn 0.010300 0.901100 0.433500
vn -0.012600 -0.400900 -0.916000
vn 0.012900 -0.882500 0.470100
vn -0.013500 0.363200 0.931600
vn 0.009800 0.853000 0.521900
vn -0.586700 -0.006800 -0.809800
vn 0.008000 -0.994700 -0.102600
vn -0.008400 0.309800 0.950800
vn 0.007800 0.632000 0.775000
vn 0.012300 -0.724600 0.689100
vn 0.009500 0.946100 0.323800
vn -0.011400 0.914300 -0.404800
vn 0.010000 -0.117100 -0.993100
vn 0.004600 -0.990700 0.135600
vn -0.008200 -0.869700 0.493500
vn -0.005700 0.896800 0.442500
vn 0.009400 0.668800 0.743400
vn 0.004900 0.162500 -0.986700
vn -0.003600 -0.079300 -0.996800
vn -0.350100 0.006000 0.936700
vn 0.995300 0.001500 0.097200
vn 0.078400 -0.001900 -0.996900
vn -0.319100 0.005800 -0.947700
vn 0.015600 -0.901600 -0.432300
vn 0.006800 0.073600 0.997300
vn 0.011800 0.855200 -0.518200
vn -0.012700 -0.072700 -0.997300
vn -0.013000 -0.170600 0.985300
vn -0.003700 0.983300 -0.181800
vn 0.003500 0.023200 -0.999700
vn -0.001600 -0.999800 -0.021300
vn -0.007900 0.077300 -0.997000
vn -0.001100 0.219300 -0.975600
vn -0.341800 -0.004600 0.939800
vn -0.896300 0.006700 0.443400
vn 0.073900 0.004400 -0.997300
usemtl Ivory
s off
f 62//1 76//1 26//1
f 26//2 70//2 62//2
f 24//3 78//3 63//3
f 61//4 25//4 71//4
f 70//5 26//5 59//5
f 83//6 82//6 70//6
f 72//7 52//7 75//7
f 54//8 74//8 53//8 57//8
f 77//9 73//9 58//9
f 51//10 79//10 53//10
f 78//11 67//11 63//11
f 80//12 72//12 60//12 69//12
f 67//13 66//13 62//13
f 54//14 57//14 77//14
f 62//15 66//15 76//15
f 68//16 55//16 66//16
f 57//17 53//17 55//17
f 56//18 68//18 67//18
f 78//19 56//19 67//19
f 53//20 74//20 51//20
f 51//21 76//21 79//21
f 51//22 83//22 76//22
f 61//23 68//23 64//23
f 60//24 72//24 75//24
f 63//25 67//25 62//25
f 62//26 25//26 61//26
f 56//27 65//27 64//27 68//27
f 80//28 69//28 71//28
f 59//29 83//29 70//29
f 83//30 59//30 26//30
f 65//31 24//31 63//31
f 70//32 82//32 25//32
f 61//33 63//33 62//33
f 80//34 25//34 82//34
f 25//35 80//35 71//35
f 25//36 62//36 70//36
f 63//37 61//37 64//37
f 61//38 71//38 69//38
f 61//39 69//39 60//39
f 64//40 65//40 63//40
f 68//41 61//41 55//41
f 52//42 73//42 75//42
f 76//43 53//43 79//43
f 73//44 77//44 55//44
f 68//45 66//45 67//45
f 58//46 54//46 77//46
f 53//47 76//47 66//47
f 55//48 60//48 75//48
f 55//49 75//49 73//49
f 57//50 55//50 77//50
f 58//51 73//51 52//51
f 55//52 61//52 60//52
f 83//53 26//53 76//53
f 55//54 53//54 66//54
usemtl Gray
f 24//55 65//55 56//55
f 24//56 56//56 78//56
usemtl Black
f 6//57 5//57 1//57
f 4//58 3//58 5//58
f 5//59 6//59 4//59
f 7//60 12//60 8//60
f 9//61 7//61 10//61
f 20//62 81//62 19//62
f 22//63 21//63 81//63
f 50//64 45//64 47//64 46//64
f 31//65 27//65 28//65
f 32//66 31//66 29//66
f 33//67 37//67 34//67
f 35//68 34//68 36//68
f 37//69 33//69 38//69
f 44//70 41//70 39//70
f 41//71 43//71 39//71
f 43//72 41//72 42//72
f 48//73 50//73 49//73
f 1//74 2//74 6//74
f 1//75 4//75 2//75
f 4//76 1//76 3//76
f 7//77 8//77 10//77
f 9//78 10//78 11//78
f 9//79 11//79 12//79
f 12//80 11//80 8//80
f 14//81 13//81 18//81
f 14//82 17//82 13//82
f 15//83 16//83 17//83
f 15//84 17//84 14//84
f 16//85 15//85 18//85
f 16//86 18//86 13//86
f 21//87 19//87 81//87
f 22//88 23//88 21//88
f 20//89 23//89 22//89
f 19//90 23//90 20//90
f 27//91 30//91 28//91
f 28//92 29//92 31//92
f 29//93 30//93 32//93
f 30//94 27//94 32//94
f 33//95 34//95 35//95
f 35//96 36//96 38//96
f 37//97 38//97 36//97
f 44//98 39//98 40//98
f 44//99 43//99 42//99
f 43//100 44//100 40//100
f 47//101 49//101 46//101
f 48//102 49//102 47//102
f 48//103 45//103 50//103
